<svg width="56" height="56" viewBox="0 0 56 56" fill="none" xmlns="http://www.w3.org/2000/svg">
<circle cx="28" cy="28" r="28" fill="#EFEEE8"/>
<path d="M19 19H37C37.2652 19 37.5196 19.1054 37.7071 19.2929C37.8946 19.4804 38 19.7348 38 20V36C38 36.2652 37.8946 36.5196 37.7071 36.7071C37.5196 36.8946 37.2652 37 37 37H19C18.7348 37 18.4804 36.8946 18.2929 36.7071C18.1054 36.5196 18 36.2652 18 36V20C18 19.7348 18.1054 19.4804 18.2929 19.2929C18.4804 19.1054 18.7348 19 19 19ZM36 23.238L28.072 30.338L20 23.216V35H36V23.238ZM20.511 21L28.061 27.662L35.502 21H20.511Z" fill="#333333"/>
</svg>
