<svg width="1512" height="252" viewBox="0 0 1512 252" fill="none" xmlns="http://www.w3.org/2000/svg">
<path d="M1512 9.3622V3.14713C1476.92 10.6263 1444.27 31.431 1422.62 65.8245C1409.4 63.9811 1395.97 63.8757 1381.85 66.0352C1326.76 -21.8712 1199.24 -22.0818 1143.94 65.8245C1130.72 63.9811 1117.29 63.8757 1103.17 66.0352C1048.03 -21.8712 920.515 -22.0292 865.211 65.8245C851.991 63.9811 838.56 63.8757 824.445 66.0352C769.299 -21.8712 641.785 -22.0292 586.481 65.8245C573.261 63.9811 559.83 63.8757 545.715 66.0352C490.674 -21.8712 363.16 -22.0818 307.857 65.8245C294.636 63.9811 281.206 63.8757 267.09 66.0352C211.997 -21.8712 84.4828 -22.0818 29.1792 65.8245C19.6459 64.5078 9.95464 64.0864 0 64.7711V70.8809C8.21653 70.3015 16.7491 70.4595 25.7557 71.5656C91.962 79.5188 136.89 141.88 124.038 144.092C96.2809 148.938 116.19 153.52 91.5933 127.449C66.6803 101.061 32.8135 89.5261 0 92.3703V98.4273C32.6554 95.5305 66.5223 107.539 90.3292 135.138C105.498 152.678 101.232 149.675 91.6986 153.889C75.1602 161.157 86.9583 160.947 68.7871 143.408C49.6152 124.868 24.2809 117.178 0 119.917V126.132C25.229 123.13 51.6167 132.136 69.7879 153.257C80.0059 165.16 77.267 158.84 58.7271 174.167C45.3489 152.888 21.8054 144.145 0 147.727V153.889C15.485 150.992 32.0761 155.153 44.6116 166.688C59.4645 180.382 53.4601 175.958 38.2911 195.024C32.2868 177.538 14.5369 171.27 0 175.905V182.541C6.05706 179.855 13.4309 179.381 20.91 183.332C27.9151 187.018 36.553 196.552 30.654 205.506C27.6518 210.035 32.6555 206.401 9.53328 206.401C5.6357 206.401 2.58083 206.506 0 206.664V212.879C84.3248 206.717 137.048 283.879 124.038 286.143C99.3884 290.41 112.398 294.465 97.229 275.82C72.4214 245.272 35.6576 231.419 0 234.421V240.584C33.0768 237.687 67.365 250.012 91.0666 277.98C105.182 294.676 101.39 291.621 91.6986 295.887C71.684 304.683 90.3819 300.312 59.8859 277.98C41.9254 264.759 20.5413 259.756 0 262.073V268.13C25.1236 265.075 51.5113 274.029 69.7879 295.308C80.0059 307.212 77.267 300.891 58.7271 316.218C45.4016 294.939 21.8054 286.196 0 289.778V295.94C15.485 293.043 32.0761 297.204 44.6116 308.739C59.4645 322.433 53.4601 318.009 38.2911 337.075C32.2868 319.536 14.5369 313.321 0 317.956V324.593C6.05706 321.906 13.4309 321.432 20.91 325.383C27.9151 329.07 36.553 338.603 30.654 347.557C27.7045 352.086 32.4448 348.452 9.53328 348.452C5.6357 348.452 2.58083 348.558 0 348.716V354.983C46.8237 351.718 95.1748 372.628 123.459 417.766C130.727 429.353 129.674 427.141 124.038 428.142C99.3884 432.408 112.398 436.464 97.229 417.819C72.3687 387.217 35.605 373.418 0 376.42V382.635C4.5823 382.214 9.26993 382.056 14.1156 382.266C69.8932 384.689 106.604 431.987 97.387 435.569C68.8398 446.682 92.8573 446.155 62.6774 422.085C44.1375 407.337 21.5421 401.649 0 404.124V410.234C2.73884 409.866 5.58303 409.655 8.42721 409.602C47.8771 409.128 81.5859 442.416 72.3687 448.367C45.0856 465.906 70.9466 455.372 35.921 437.359C24.5969 431.566 12.0088 429.722 0 431.776V437.939C30.2326 432.777 59.5172 456.847 49.8259 466.328C45.665 470.383 41.8727 474.597 38.2911 479.127C32.2868 461.535 14.5369 455.425 0 460.06V466.486C18.3819 458.533 38.8705 477.125 30.654 489.661C27.6518 494.19 32.5501 490.556 9.53328 490.556C5.6357 490.556 2.58083 490.661 0 490.819V497.14C46.8237 493.874 95.1222 514.679 123.459 559.923C130.727 571.51 129.674 569.298 124.038 570.299C99.3884 574.565 112.398 578.62 97.229 559.975C72.2107 529.163 35.4996 515.522 0 518.524V524.739C4.5823 524.318 9.26993 524.16 14.1156 524.37C69.9985 526.74 106.604 574.091 97.387 577.672C68.8398 588.786 92.8573 588.259 62.6774 564.189C44.2429 549.441 21.5947 543.753 0 546.176V552.285C2.73884 551.917 5.58303 551.706 8.42721 551.653C49.2465 551.074 81.1646 584.73 72.3687 590.419C45.0329 607.958 70.9466 597.424 35.921 579.411C24.4389 573.511 11.8508 571.826 0 573.828V579.99C30.2326 574.828 59.5172 598.898 49.8259 608.379C45.6123 612.487 41.82 616.754 38.2911 621.178C32.2868 603.639 14.5369 597.476 0 602.111V608.432C3.79225 606.799 8.32187 606.114 13.6416 607.01C25.2816 609.011 37.3431 621.547 30.654 631.712C27.3358 636.716 23.6489 630.975 0 632.871V639.138C47.2451 635.82 96.0176 656.994 124.301 703.238C130.885 714.088 130.095 710.822 118.086 713.456C102.496 716.879 110.554 719.197 98.8617 704.133C74.0541 672.005 36.395 657.626 0 660.681V666.738C33.1822 663.841 67.523 676.324 91.0666 704.133C105.182 720.777 101.39 717.775 91.6986 722.041C75.1602 729.31 86.9583 729.099 68.7871 711.56C49.7732 693.231 24.3862 685.383 0 688.174V694.442C22.3848 690.808 47.9298 696.022 69.7879 721.462C79.9532 733.313 77.3197 726.992 58.7271 742.372C45.9283 721.936 22.5428 712.086 0.0526701 715.879V722.041C20.12 718.354 42.0834 726.413 54.0922 746.427C19.0666 778.082 52.7228 746.006 12.0088 742.74C7.53182 742.372 3.47623 743.057 0.0526701 744.163V750.43C3.84492 748.798 8.37454 748.113 13.6942 749.008C25.3343 751.01 37.3958 763.545 30.7067 773.711C27.2304 778.978 24.8076 772.815 0.0526701 774.869V781.19C47.3504 777.871 96.1229 799.15 124.354 845.289C130.938 856.139 130.148 852.874 118.139 855.507C102.549 858.931 110.607 861.248 98.9144 846.185C74.1068 814.266 36.5004 799.677 0 802.732V808.841C33.1822 805.945 67.523 818.375 91.0666 846.237C105.182 862.881 101.39 859.879 91.6986 864.145C75.1602 871.413 86.9583 871.203 68.7871 853.664C49.7206 835.282 24.3336 827.487 0 830.278V836.493C22.3321 832.859 47.9298 838.073 69.7879 863.566C80.0059 875.469 77.267 869.149 58.7271 884.476C45.9283 864.04 22.4901 854.19 0 857.983V864.145C20.0673 860.458 42.0307 868.517 54.0395 888.531C19.0139 920.186 52.8281 888.11 11.9561 884.844C7.42648 884.476 3.42356 885.16 0 886.266V892.534C3.79225 890.901 8.32187 890.217 13.6416 891.112C25.2816 893.114 37.3431 905.649 30.654 915.814C27.1778 921.081 24.7549 914.919 0 916.973V924.189C55.9356 919.87 114.399 947.89 136.784 1014.25C164.489 1096.21 108.711 1130.29 129.358 1130.29C139.628 1113.54 146.37 1094.52 148.846 1074.14C151.321 1094.52 158.116 1113.54 168.334 1130.29C191.666 1130.29 131.254 1099.47 161.276 1013.2C210.733 870.781 422.519 906.439 422.519 1057.18C422.519 1117.65 389.864 1130.34 408.035 1130.34C418.306 1113.59 425.048 1094.58 427.523 1074.19C429.999 1094.58 436.793 1113.59 447.011 1130.34C468.184 1130.34 432.527 1122.81 432.527 1057.18C432.527 905.807 646.051 872.046 694.139 1014.25C721.843 1096.21 666.066 1130.29 686.713 1130.29C696.983 1113.54 703.725 1094.52 706.2 1074.14C708.676 1094.52 715.47 1113.54 725.688 1130.29C749.021 1130.29 688.609 1099.47 718.631 1013.2C768.404 869.991 979.874 907.334 979.874 1057.18C979.874 1117.65 947.219 1130.34 965.39 1130.34C975.661 1113.59 982.402 1094.58 984.878 1074.19C987.353 1094.58 994.148 1113.59 1004.37 1130.34C1025.54 1130.34 989.881 1122.81 989.881 1057.18C989.881 905.702 1203.2 871.308 1251.49 1014.25C1279.2 1096.21 1223.42 1130.29 1244.07 1130.29C1254.34 1113.54 1261.08 1094.52 1263.56 1074.14C1266.03 1094.52 1272.83 1113.54 1283.04 1130.29C1306.32 1130.29 1245.96 1099.37 1275.99 1013.2C1315.07 900.698 1454.22 899.803 1511.89 977.333V968.59C1510.31 966.746 1508.31 964.482 1505.73 961.637C1502.36 958.056 1505.63 953.579 1511.89 949.681V942.887C1509.31 944.414 1506.79 946.1 1504.47 948.101C1494.57 956.318 1503.47 956.423 1483.87 942.571C1480.13 939.937 1492.14 926.928 1511.89 919.238V912.601C1504.68 915.288 1497.62 919.027 1491.09 923.82C1467.7 940.938 1486.14 940.411 1459.28 928.613C1454.75 926.612 1476.5 900.698 1511.89 890.217V883.791C1490.25 889.585 1470.07 901.909 1454.48 920.713C1450.01 926.085 1452.69 925.769 1446.79 923.82C1429.04 917.974 1422.78 923.873 1441.47 903.068C1461.07 881.263 1485.82 867.569 1511.84 861.775V855.507C1511.68 855.56 1511.53 855.56 1511.37 855.612C1495.78 859.036 1503.84 861.354 1492.14 846.29C1447.74 788.774 1361.21 787.51 1315.17 844.13C1300.53 862.249 1311.12 859.668 1292.73 855.665C1281.62 853.242 1281.62 856.192 1287.57 846.343C1337.82 762.65 1456.38 759.332 1511.84 836.809V826.591C1509.79 824.063 1506.84 820.745 1502.57 816.426C1505.42 813.213 1508.52 810.474 1511.84 808.157V800.888C1509.26 802.416 1506.79 804.101 1504.42 806.103C1494.51 814.319 1503.41 814.424 1483.82 800.572C1480.08 797.939 1492.09 784.929 1511.84 777.239V770.603C1504.63 773.289 1497.57 777.029 1491.04 781.822C1467.65 798.939 1486.09 798.413 1459.22 786.615C1454.69 784.613 1476.45 758.7 1511.84 748.218V741.845C1490.19 747.691 1469.97 760.016 1454.43 778.714C1449.95 784.087 1452.64 783.771 1446.74 781.822C1428.94 775.975 1422.72 781.874 1441.42 761.07C1461.02 739.264 1485.77 725.57 1511.79 719.776V713.509C1511.63 713.561 1511.47 713.561 1511.32 713.614C1495.72 717.038 1503.78 719.355 1492.09 704.291C1447.58 646.828 1361.15 645.406 1315.12 702.132C1300.48 720.25 1311.06 717.67 1292.68 713.667C1281.57 711.244 1281.57 714.193 1287.52 704.344C1337.87 620.388 1456.43 617.544 1511.79 694.811V684.645C1510.21 682.802 1508.21 680.537 1505.63 677.693C1502.26 674.111 1505.52 669.634 1511.79 665.737V658.942C1509.21 660.47 1506.73 662.155 1504.36 664.157C1494.46 672.373 1503.36 672.479 1483.77 658.626C1480.03 655.993 1492.04 642.983 1511.79 635.293V628.657C1504.57 631.343 1497.52 635.083 1490.98 639.876C1467.6 656.994 1486.03 656.467 1459.17 644.669C1454.64 642.667 1476.4 616.754 1511.79 606.272V599.899C1490.14 605.746 1469.92 618.07 1454.38 636.768C1449.9 642.141 1452.59 641.825 1446.69 639.876C1428.94 634.029 1422.67 639.928 1441.37 619.124C1460.96 597.318 1485.72 583.624 1511.74 577.83V571.563C1511.58 571.615 1511.42 571.615 1511.26 571.668C1495.67 575.092 1503.73 577.409 1492.04 562.345C1447.53 504.724 1361.05 503.618 1315.07 560.186C1300.42 578.304 1310.96 575.724 1292.63 571.721C1281.57 569.298 1281.52 572.247 1287.47 562.398C1337.82 478.547 1456.33 475.492 1511.74 552.865V542.7C1510.16 540.856 1508.16 538.591 1505.57 535.747C1502.26 532.165 1505.47 527.689 1511.74 523.791V516.996C1509.16 518.524 1506.68 520.209 1504.31 522.211C1494.41 530.427 1503.31 530.533 1483.72 516.68C1479.98 514.047 1491.99 501.037 1511.74 493.348V486.711C1504.52 489.397 1497.46 493.137 1490.93 497.93C1467.65 514.995 1485.98 514.521 1459.12 502.723C1454.33 500.616 1476.45 474.808 1511.74 464.379V458.059C1488.4 464.379 1466.81 478.179 1450.9 499.405C1426.78 490.556 1425.94 497.087 1433.05 487.396C1453.38 459.797 1481.61 442.626 1511.74 435.885V429.669C1494.62 433.409 1504.26 435.358 1490.41 418.24C1444.85 362.146 1359.47 362.357 1314.17 419.399C1299.53 437.886 1312.28 433.04 1286.62 428.616C1277.88 427.089 1313.59 371.206 1374.27 358.091C1442.16 343.396 1493.3 384.637 1511.74 410.182V400.806C1510.16 398.963 1508.16 396.698 1505.57 393.854C1502.2 390.272 1505.47 385.795 1511.74 381.898V375.103C1509.16 376.631 1506.68 378.316 1504.31 380.318C1494.41 388.534 1503.31 388.639 1483.72 374.787C1479.98 372.154 1491.99 359.197 1511.74 351.507V344.923C1503.1 348.084 1494.83 352.666 1487.46 358.67C1468.65 373.945 1485.51 371.838 1456.75 359.829C1471.44 340.762 1490.88 328.332 1511.74 322.38V316.113C1488.46 322.381 1466.86 336.18 1450.9 357.511C1426.78 348.663 1425.94 355.194 1433.05 345.503C1453.33 317.956 1481.56 300.733 1511.74 293.939V287.724C1494.62 291.463 1504.26 293.412 1490.41 276.294C1444.85 220.201 1359.47 220.411 1314.17 277.453C1299.53 295.94 1312.28 291.094 1286.62 286.67C1278.25 285.195 1313.17 229.365 1374.27 216.145C1442.42 201.397 1493.35 242.638 1511.74 268.183V258.86C1510.16 257.017 1508.16 254.752 1505.57 251.908C1502.15 248.221 1505.57 243.849 1511.74 240.005V233.157C1488.67 246.799 1508.95 249.801 1481.35 231.103C1489.98 221.096 1500.47 213.88 1511.74 209.351V202.872C1503.1 206.032 1494.83 210.615 1487.46 216.619C1468.71 231.841 1485.4 229.787 1456.75 217.778C1471.44 198.711 1490.88 186.281 1511.74 180.329V174.062C1488.46 180.329 1466.86 194.129 1450.9 215.46C1426.78 206.612 1425.94 213.143 1433.05 203.451C1453.33 175.905 1481.56 158.682 1511.74 151.887V145.672C1491.99 149.991 1507.63 152.098 1484.77 127.923C1439.26 79.7294 1363.58 80.9408 1319.39 129.292C1296.26 154.626 1315.86 149.675 1286.62 144.566C1277.2 142.934 1328.18 60.9789 1418.93 71.9869C1462.81 77.3066 1497.09 106.275 1511.68 125.974V117.02C1508.73 113.386 1505.68 109.857 1502.41 106.539C1505.26 103.326 1508.37 100.639 1511.68 98.2693V90.5795C1506.73 93.529 1502.1 97.2686 1497.99 101.851C1492.78 97.0052 1487.19 92.5283 1481.24 88.5253C1489.88 78.518 1500.36 71.3022 1511.63 66.7726V60.2415C1498.36 65.1398 1486.03 73.4617 1476.03 85.2071C1469.86 81.4149 1463.39 78.0967 1456.64 75.2525C1471.34 56.2386 1490.72 43.7558 1511.63 37.7514V31.431C1488.4 37.6987 1466.81 51.5509 1450.8 72.935C1443.74 70.3542 1436.37 68.3527 1428.83 66.9306C1449.64 35.7499 1479.71 16.578 1512 9.3622ZM1140.52 71.5129C1206.67 79.5188 1251.7 141.88 1238.8 144.092C1210.99 148.938 1230.95 153.52 1206.36 127.449C1160.69 79.0447 1085 80.6775 1041.02 128.818C1017.27 154.837 1037.71 149.201 1008.26 144.092C998.783 142.46 1049.82 60.5049 1140.52 71.5129ZM1183.6 853.664C1153.47 824.59 1107.18 821.798 1073.94 846.185C1041.6 869.886 1063.15 874.047 1040.55 864.092C1032.39 860.511 1028.44 863.46 1042.02 847.027C1084.69 795.516 1163.22 795.621 1205.88 846.185C1220 862.828 1216.2 859.826 1206.51 864.092C1189.92 871.413 1201.77 871.203 1183.6 853.664ZM1173.49 884.476C1157.16 858.351 1123.24 849.345 1096.22 864.408C1061.14 883.949 1089.16 893.324 1059.93 874.521C1047.71 866.673 1128.35 797.939 1184.6 863.566C1194.77 875.469 1192.03 869.096 1173.49 884.476ZM1213.62 846.185C1168.85 788.353 1082.37 787.668 1036.65 844.025C1021.96 862.091 1032.65 859.563 1014.22 855.56C1003.1 853.137 1003.1 856.086 1009.05 846.237C1060.99 759.648 1186.24 758.858 1239.06 845.342C1245.7 856.139 1244.86 852.926 1232.85 855.56C1217.21 858.931 1225.26 861.301 1213.62 846.185ZM904.872 853.664C874.903 824.748 828.658 821.693 795.213 846.185C762.873 869.886 784.416 874.047 761.82 864.092C753.656 860.511 749.706 863.408 763.295 847.027C805.8 795.621 884.278 795.516 927.151 846.185C941.267 862.828 937.475 859.826 927.783 864.092C911.245 871.413 923.043 871.15 904.872 853.664ZM894.759 884.476C878.379 858.299 844.459 849.397 817.492 864.408C782.361 883.949 810.434 893.324 781.203 874.521C768.93 866.621 849.621 797.939 905.873 863.566C916.038 875.469 913.352 869.096 894.759 884.476ZM934.894 846.185C890.388 788.669 803.903 787.352 757.922 844.025C743.227 862.091 753.867 859.563 735.485 855.56C724.372 853.137 724.372 856.086 730.323 846.237C782.256 759.648 907.505 758.858 960.334 845.342C966.917 856.192 966.127 852.926 954.118 855.56C938.528 858.931 946.587 861.301 934.894 846.185ZM626.195 853.664C595.857 824.432 549.56 821.956 516.535 846.185C484.196 869.886 505.738 874.047 483.143 864.092C474.979 860.511 471.029 863.408 484.617 847.027C527.227 795.516 605.759 795.621 648.474 846.185C662.59 862.828 658.797 859.826 649.106 864.092C632.568 871.413 644.366 871.203 626.195 853.664ZM616.082 884.476C599.701 858.299 565.782 849.397 538.815 864.408C503.684 883.949 531.81 893.324 502.525 874.521C490.306 866.673 570.944 797.939 627.195 863.566C637.361 875.469 634.622 869.096 616.082 884.476ZM656.217 846.185C611.658 788.563 525.173 787.457 479.245 844.025C464.55 862.091 475.242 859.563 456.808 855.56C445.694 853.137 445.694 856.086 451.646 846.237C503.579 759.648 628.828 758.858 681.656 845.342C688.24 856.192 687.45 852.926 675.441 855.56C659.851 858.931 667.909 861.301 656.217 846.185ZM347.517 853.664C317.443 824.643 271.093 821.798 237.858 846.185C205.519 869.886 227.061 874.047 204.465 864.092C196.301 860.511 192.351 863.408 205.94 847.027C248.445 795.621 326.976 795.569 369.797 846.185C383.912 862.828 380.12 859.826 370.429 864.092C353.89 871.413 365.636 871.15 347.517 853.664ZM337.405 884.476C320.971 858.246 287.052 849.397 260.138 864.408C225.007 883.949 253.08 893.324 223.848 874.521C211.681 866.673 292.266 797.991 348.518 863.566C358.683 875.469 355.944 869.096 337.405 884.476ZM377.539 846.185C332.98 788.563 246.496 787.457 200.568 844.025C185.873 862.091 196.512 859.563 178.13 855.56C167.017 853.137 167.017 856.086 172.969 846.237C224.691 759.858 349.993 758.647 402.979 845.342C409.563 856.192 408.772 852.926 396.764 855.56C381.121 858.931 389.179 861.301 377.539 846.185ZM487.356 89.21C481.457 93.2656 475.927 97.7953 470.713 102.641C447.854 76.0425 407.034 75.4632 383.544 101.851C378.329 97.0052 372.746 92.5283 366.794 88.5253C398.923 51.4456 455.86 51.9723 487.356 89.21ZM361.633 85.1545C355.47 81.3622 348.992 78.044 342.25 75.1998C385.282 19.5275 468.711 19.4749 511.637 75.7265C504.948 78.5707 498.575 81.9942 492.465 85.7865C458.546 44.9672 396.237 44.4405 361.633 85.1545ZM466.394 106.907C461.285 112.174 456.597 117.81 452.331 123.762C440.585 105.748 414.619 105.064 402.031 122.656C397.764 116.757 393.077 111.226 387.968 106.064C408.983 82.3103 445.852 82.679 466.394 106.907ZM448.486 129.45C445.747 133.716 443.271 138.141 441.007 142.723C403.716 138.931 420.729 150.992 405.77 128.133C415.62 111.279 439.742 112.122 448.486 129.45ZM536.392 204.926C541.606 212.247 541.027 206.559 517.536 215.46C472.345 154.468 381.753 154.363 336.404 214.986C312.281 206.138 311.438 212.669 318.549 202.977C372.904 129.187 483.195 129.871 536.392 204.926ZM766.034 89.21C760.135 93.2656 754.604 97.7953 749.39 102.641C726.531 76.0425 685.764 75.4632 662.221 101.851C657.007 97.0052 651.424 92.5283 645.472 88.5253C677.653 51.4456 734.59 51.9723 766.034 89.21ZM640.31 85.1545C634.148 81.3622 627.669 78.044 620.928 75.1998C663.959 19.5275 747.388 19.4749 790.315 75.7265C783.625 78.5707 777.252 81.9942 771.143 85.7865C737.276 44.9672 674.914 44.4405 640.31 85.1545ZM745.071 106.907C739.962 112.174 735.274 117.81 731.008 123.762C719.263 105.748 693.296 105.064 680.708 122.656C676.442 116.757 671.754 111.226 666.645 106.064C687.661 82.3103 724.53 82.679 745.071 106.907ZM727.216 129.45C724.477 133.716 722.001 138.141 719.737 142.723C682.446 138.931 699.511 150.992 684.5 128.133C694.35 111.279 718.473 112.122 727.216 129.45ZM815.069 204.926C820.231 212.195 819.757 206.559 796.214 215.46C751.023 154.416 660.377 154.416 615.081 214.986C590.958 206.138 590.116 212.669 597.226 202.977C651.476 129.345 761.767 129.713 815.069 204.926ZM1044.76 89.21C1038.86 93.2656 1033.33 97.7953 1028.12 102.641C1005.26 76.0425 964.494 75.4632 940.951 101.851C935.737 97.0052 930.154 92.5283 924.202 88.5253C956.331 51.4456 1013.27 51.9723 1044.76 89.21ZM919.04 85.1545C912.878 81.3622 906.399 78.044 899.658 75.1998C942.689 19.5275 1026.12 19.4749 1069.04 75.7265C1062.36 78.5707 1055.98 81.9942 1049.87 85.7865C1015.95 44.9672 953.592 44.4405 919.04 85.1545ZM1023.75 106.907C1018.64 112.174 1013.95 117.81 1009.69 123.762C997.94 105.748 971.974 105.064 959.385 122.656C955.119 116.757 950.432 111.226 945.323 106.064C966.338 82.3103 1003.26 82.679 1023.75 106.907ZM1005.89 129.45C1003.15 133.716 1000.68 138.141 998.414 142.723C961.124 138.931 978.136 150.992 963.178 128.133C973.027 111.279 997.15 112.122 1005.89 129.45ZM1093.8 204.926C1099.01 212.247 1098.43 206.559 1074.94 215.46C1029.65 154.258 939.002 154.574 893.811 214.986C869.688 206.138 868.846 212.669 875.956 202.977C930.312 129.134 1040.6 129.924 1093.8 204.926ZM1023.48 808.157C1001.89 788.142 969.287 787.668 947.166 806.05C937.264 814.266 946.165 814.372 926.572 800.52C919.514 795.516 968.181 754.065 1019.48 779.715C1026.54 783.244 1047.45 797.623 1043.34 800.52C1023.85 814.266 1031.12 815.215 1023.48 808.157ZM1023.75 817.163C997.519 844.078 1021.17 833.386 996.149 822.588C988.828 819.428 981.349 819.323 973.922 821.956C947.166 831.49 971.974 843.235 945.27 816.268C966.496 792.408 1003.52 793.251 1023.75 817.163ZM933.788 781.716C910.402 798.834 928.837 798.307 901.975 786.509C896.287 783.981 931.944 743.794 984.14 743.794C1038.02 743.794 1070.84 785.245 1067.94 786.509C1046.77 795.832 1051.72 798.149 1047.66 793.62C1018.59 761.28 969.604 755.434 933.788 781.716ZM897.182 778.662C892.705 784.034 895.444 783.718 889.545 781.769C871.795 775.923 865.527 781.822 884.225 761.017C943.268 695.285 1048.29 703.343 1096.7 777.45C1072.84 782.243 1076.52 785.772 1073.47 781.769C1028.65 723.937 942.952 723.516 897.182 778.662ZM848.041 742.793C842.985 742.372 838.455 743.215 834.873 744.637C801.586 757.277 834.452 778.661 800.585 747.428C820.284 712.929 869.688 712.403 890.124 746.48C855.046 778.135 888.755 746.006 848.041 742.793ZM866.739 773.763C862.841 779.715 860.26 771.024 825.024 776.186C816.492 777.45 823.918 744.637 849.726 749.061C861.367 751.01 873.428 763.545 866.739 773.763ZM744.808 808.157C723.424 788.353 690.821 787.457 668.489 806.05C658.587 814.266 667.488 814.372 647.895 800.52C640.89 795.569 689.557 754.117 740.805 779.715C747.81 783.191 768.72 797.623 764.664 800.52C745.124 814.266 752.445 815.215 744.808 808.157ZM745.071 817.163C718.841 844.078 742.49 833.386 717.472 822.588C710.045 819.375 702.566 819.375 695.245 821.956C668.489 831.49 693.296 843.235 666.593 816.268C687.871 792.356 724.898 793.304 745.071 817.163ZM655.11 781.716C631.725 798.834 650.159 798.307 623.298 786.509C617.609 783.981 653.267 743.794 705.463 743.794C759.397 743.794 792.158 785.245 789.261 786.509C767.93 795.885 773.091 798.149 768.983 793.62C740.015 761.386 691.031 755.381 655.11 781.716ZM618.505 778.662C614.028 784.034 616.767 783.718 610.868 781.769C593.434 776.028 586.903 781.769 605.548 761.017C664.486 695.443 769.563 703.238 818.019 777.45C794.159 782.243 797.846 785.772 794.791 781.769C749.706 723.621 663.959 723.832 618.505 778.662ZM569.311 742.793C564.255 742.372 559.725 743.215 556.143 744.637C522.909 757.277 555.669 778.609 521.855 747.428C541.554 712.982 590.958 712.35 611.394 746.48C576.369 778.135 610.078 746.059 569.311 742.793ZM588.061 773.763C584.164 779.662 581.636 770.972 546.347 776.186C537.814 777.45 545.241 744.637 571.049 749.061C582.689 751.01 594.751 763.545 588.061 773.763ZM466.13 808.157C444.746 788.353 412.143 787.457 389.811 806.05C379.909 814.266 388.811 814.372 369.217 800.52C362.159 795.516 410.827 754.065 462.127 779.715C469.132 783.191 490.095 797.623 485.987 800.52C466.446 814.266 473.715 815.215 466.13 808.157ZM466.394 817.163C440.164 844.13 463.813 833.386 438.794 822.588C431.368 819.375 423.889 819.375 416.568 821.956C389.811 831.49 414.619 843.235 387.915 816.268C409.141 792.356 446.168 793.304 466.394 817.163ZM376.433 781.716C353.048 798.834 371.482 798.307 344.62 786.509C338.932 783.981 374.59 743.794 426.786 743.794C480.562 743.794 513.586 785.193 510.584 786.509C489.305 795.885 494.414 798.149 490.306 793.62C461.232 761.28 412.249 755.487 376.433 781.716ZM339.827 778.662C335.35 784.034 338.089 783.718 332.19 781.769C314.756 776.028 308.225 781.769 326.871 761.017C385.914 695.285 490.938 703.343 539.342 777.45C515.482 782.243 519.222 785.772 516.114 781.769C471.292 723.99 385.545 723.463 339.827 778.662ZM529.756 168.689C549.454 148.464 581.32 147.621 602.019 166.688C616.872 180.382 610.868 175.958 595.699 195.024C586.007 166.846 545.978 167.846 537.709 196.446C521.961 176.168 517.22 181.541 529.756 168.689ZM517.22 175.115C498.417 159.261 496.89 165.582 504.632 155.838C535.707 116.44 594.698 115.44 627.195 153.31C637.413 165.213 634.674 158.893 616.135 174.22C593.118 137.456 539.552 137.877 517.22 175.115ZM578.265 183.332C585.27 187.018 593.908 196.552 588.009 205.506C585.059 210.035 589.8 206.401 566.888 206.401C542.449 206.401 547.4 210.404 544.187 205.506C537.761 195.709 557.249 172.165 578.265 183.332ZM681.393 286.143C656.743 290.41 669.753 294.465 654.584 275.82C609.077 219.727 523.435 219.99 478.35 276.979C463.707 295.466 476.454 290.62 450.803 286.196C442.113 284.669 477.77 228.786 538.446 215.671C633.779 194.972 695.35 283.721 681.393 286.143ZM808.433 168.689C827.921 148.675 859.786 147.463 880.696 166.688C895.549 180.382 889.545 175.958 874.376 195.024C864.737 166.846 824.655 167.794 816.386 196.446C800.638 176.168 795.898 181.541 808.433 168.689ZM795.898 175.115C777.094 159.261 775.567 165.582 783.309 155.838C814.385 116.44 873.428 115.44 905.873 153.31C916.091 165.213 913.352 158.893 894.812 174.22C871.742 137.351 818.177 137.983 795.898 175.115ZM856.995 183.332C864 187.018 872.638 196.552 866.739 205.506C863.737 210.035 868.74 206.401 845.618 206.401C821.074 206.401 826.13 210.404 822.917 205.506C816.281 195.446 836.243 172.323 856.995 183.332ZM960.123 286.143C935.473 290.41 948.483 294.465 933.314 275.82C887.912 219.937 802.376 219.779 757.08 276.979C742.437 295.466 755.184 290.62 729.533 286.196C720.79 284.669 756.5 228.786 817.176 215.671C912.404 194.972 974.08 283.721 960.123 286.143ZM904.872 711.612C874.587 682.381 828.29 679.905 795.213 704.133C762.873 727.835 784.416 731.996 761.82 722.041C753.656 718.46 749.706 721.356 763.295 704.976C805.694 653.675 884.173 653.359 927.151 704.133C941.267 720.777 937.475 717.775 927.783 722.041C911.245 729.362 923.043 729.099 904.872 711.612ZM894.759 742.424C878.379 716.247 844.459 707.346 817.492 722.357C780.623 742.899 811.277 751.8 781.203 732.47C768.93 724.569 849.621 655.94 905.873 721.514C915.985 733.313 913.405 727.045 894.759 742.424ZM934.894 704.133C890.072 646.196 803.587 645.775 757.922 701.974C743.227 720.04 753.92 717.511 735.485 713.509C724.372 711.086 724.372 714.035 730.323 704.186C782.045 617.965 907.242 616.438 960.334 703.291C966.917 714.141 966.127 710.875 954.118 713.509C938.528 716.879 946.587 719.25 934.894 704.133ZM626.195 711.612C595.699 682.17 549.349 680.063 516.535 704.133C484.196 727.835 505.738 731.996 483.143 722.041C474.979 718.46 471.029 721.356 484.617 704.976C526.911 653.833 605.443 653.254 648.474 704.133C662.59 720.777 658.797 717.775 649.106 722.041C632.568 729.362 644.366 729.152 626.195 711.612ZM616.082 742.424C599.701 716.247 565.782 707.346 538.815 722.357C502.789 742.424 532.231 751.536 502.525 732.47C490.306 724.622 570.996 655.94 627.195 721.514C637.361 733.418 634.622 727.045 616.082 742.424ZM656.217 704.133C611.658 646.512 525.173 645.406 479.245 701.974C464.55 720.04 475.242 717.511 456.808 713.509C445.694 711.086 445.694 714.035 451.646 704.186C503.684 617.333 628.986 617.07 681.656 703.291C688.24 714.141 687.45 710.875 675.441 713.509C659.851 716.879 667.909 719.197 656.217 704.133ZM705.463 230.524C726.373 230.524 747.757 246.009 742.753 251.381C723.213 272.397 737.644 266.919 721.791 256.754C715.576 252.751 707.201 250.855 698.932 252.645C667.857 259.44 693.56 277.032 669.7 251.381C661.852 242.901 690.189 230.524 705.463 230.524ZM645.524 230.577C677.548 193.602 734.695 194.182 766.034 231.261C739.383 249.643 758.08 247.22 736.38 233.473C718.525 222.149 695.508 221.254 676.389 232.367C652.53 246.22 673.334 249.38 645.524 230.577ZM721.896 264.496C730.113 271.975 726.268 271.501 719.684 284.774C682.13 280.982 699.511 293.201 684.448 270.184C692.664 256.174 710.783 254.278 721.896 264.496ZM815.069 346.977C820.231 354.246 819.757 348.61 796.214 357.511C750.917 296.361 660.325 296.572 615.081 357.037C590.958 348.189 590.116 354.72 597.226 345.029C651.476 271.396 761.767 271.765 815.069 346.977ZM744.808 666.105C723.424 646.302 690.821 645.406 668.489 663.999C658.587 672.215 667.488 672.321 647.895 658.468C640.89 653.517 689.557 612.066 740.805 637.664C747.81 641.14 768.72 655.571 764.664 658.468C745.124 672.215 752.445 673.163 744.808 666.105ZM745.071 675.112C718.841 702.027 742.49 691.334 717.472 680.537C710.045 677.324 702.566 677.324 695.245 679.905C668.489 689.438 693.296 701.184 666.593 674.217C687.871 650.304 724.898 651.253 745.071 675.112ZM655.11 639.665C631.725 656.783 650.159 656.256 623.298 644.458C617.662 641.983 653.267 601.743 705.463 601.743C759.292 601.743 792.211 643.141 789.261 644.458C768.088 653.781 773.039 656.098 768.983 651.569C739.909 619.229 690.926 613.435 655.11 639.665ZM618.505 636.61C614.028 641.983 616.767 641.667 610.868 639.718C593.276 633.924 586.903 639.718 605.548 618.966C664.275 553.602 769.405 560.976 818.019 635.399C793.58 640.297 797.952 643.826 794.791 639.718C749.969 581.886 664.222 581.465 618.505 636.61ZM705.463 568.139C687.239 568.139 696.667 572.932 684.448 554.287C694.402 537.327 718.525 538.486 727.163 555.604C716.05 573.09 725.267 568.139 705.463 568.139ZM717.472 538.486C710.045 535.273 702.566 535.273 695.245 537.854C668.489 547.387 693.296 559.133 666.593 532.165C687.819 508.148 724.846 509.149 745.018 533.008C718.789 560.028 742.49 549.283 717.472 538.486ZM744.808 524.054C723.476 504.303 690.873 503.355 668.489 521.947C658.587 530.164 667.488 530.269 647.895 516.417C640.837 511.413 689.504 469.962 740.805 495.612C747.81 499.089 768.72 513.52 764.664 516.417C745.124 530.164 752.445 531.112 744.808 524.054ZM761.135 501.775C729.481 474.544 683.342 474.439 651.687 500.195C632.936 515.416 649.685 513.415 620.98 501.353C664.222 445.418 747.81 446.155 790.367 501.88C763.137 513.573 777.463 515.838 761.135 501.775ZM615.081 499.089C590.958 490.24 590.116 496.771 597.226 487.08C651.318 413.605 761.609 413.71 815.069 489.081C820.231 496.35 819.757 490.714 796.214 499.615C751.128 438.623 660.535 438.413 615.081 499.089ZM684.448 412.236C692.664 398.225 710.73 396.329 721.896 406.547C730.113 414.026 726.268 413.552 719.684 426.825C682.183 423.033 699.564 435.253 684.448 412.236ZM721.843 398.805C715.628 394.802 707.254 392.906 698.985 394.697C667.909 401.491 693.612 419.083 669.753 393.432C661.905 384.953 690.241 372.575 705.463 372.575C724.793 372.575 748.284 387.481 742.753 393.432C723.266 414.448 737.697 408.97 721.843 398.805ZM736.38 375.525C718.525 364.201 695.508 363.305 676.389 374.419C652.53 388.323 673.282 391.484 645.524 372.68C677.548 335.706 734.695 336.285 766.034 373.365C739.435 391.694 758.133 389.272 736.38 375.525ZM761.135 359.724C729.481 332.493 683.342 332.388 651.687 358.143C632.936 373.365 649.685 371.364 620.98 359.302C664.222 303.314 747.862 304.104 790.367 359.829C763.137 371.522 777.463 373.787 761.135 359.724ZM649.106 295.887C629.091 304.683 647.789 300.312 617.293 277.98C582.32 252.329 535.075 257.438 506.001 287.039C486.935 306.474 504.632 303.472 475.031 292.622C513.059 228.47 601.598 222.623 648.474 278.032C662.59 294.676 658.797 291.621 649.106 295.887ZM504.579 297.889C535.602 258.492 594.487 257.333 627.143 295.361C637.361 307.264 634.622 300.944 616.082 316.271C593.065 279.507 539.552 279.928 517.22 317.166C498.417 301.312 496.89 307.633 504.579 297.889ZM529.756 310.74C549.454 290.515 581.32 289.672 602.019 308.739C616.872 322.433 610.868 318.009 595.699 337.075C586.007 308.897 545.978 309.898 537.709 338.498C521.961 318.22 517.22 323.645 529.756 310.74ZM578.265 325.383C585.27 329.07 593.908 338.603 588.009 347.557C585.007 352.086 589.905 348.452 566.888 348.452C542.449 348.452 547.4 352.455 544.187 347.557C537.761 337.813 557.249 314.217 578.265 325.383ZM681.393 428.195C656.743 432.461 669.753 436.517 654.584 417.871C609.077 361.778 523.435 362.041 478.35 419.03C463.707 437.517 476.454 432.672 450.803 428.247C442.165 426.773 477.823 370.837 538.446 357.722C633.779 337.023 695.35 425.772 681.393 428.195ZM648.474 420.031C662.59 436.727 658.797 433.672 649.106 437.939C629.091 446.735 647.789 442.363 617.293 420.031C582.32 394.381 535.075 399.49 506.001 429.09C486.935 448.525 504.632 445.523 475.031 434.673C513.059 370.521 601.598 364.675 648.474 420.031ZM504.579 439.94C535.602 400.543 594.487 399.384 627.143 437.412C637.361 449.315 634.622 442.995 616.082 458.322C593.118 421.664 539.605 421.927 517.22 459.217C498.417 443.364 496.89 449.684 504.579 439.94ZM529.756 452.792C549.454 432.566 581.32 431.724 602.019 450.79C616.925 464.484 610.815 460.165 595.699 479.127C586.007 450.948 545.978 451.949 537.709 480.549C521.961 460.271 517.22 465.696 529.756 452.792ZM571.049 464.906C582.742 466.907 594.751 479.443 588.061 489.608C584.164 495.507 581.53 486.869 546.347 492.031C537.762 493.348 545.241 460.534 571.049 464.906ZM681.656 561.187C688.24 572.037 687.503 568.771 675.441 571.405C659.851 574.828 667.909 577.146 656.217 562.082C611.131 503.829 524.699 503.987 479.245 559.923C464.55 577.988 475.189 575.46 456.808 571.457C445.694 569.035 445.694 571.984 451.646 562.135C503.789 475.282 628.986 474.966 681.656 561.187ZM484.617 562.925C526.911 511.73 605.337 511.203 648.474 562.082C662.59 578.778 658.797 575.724 649.106 579.99C632.568 587.258 644.366 587.048 626.195 569.509C596.173 540.54 549.928 537.59 516.535 562.029C484.091 585.836 505.791 589.892 483.143 579.937C474.979 576.408 471.029 579.305 484.617 562.925ZM627.143 579.411C637.361 591.314 634.622 584.994 616.082 600.321C599.701 574.144 565.782 565.242 538.815 580.253C503.421 599.952 531.915 609.275 502.525 590.366C490.148 582.465 570.996 513.942 627.143 579.411ZM611.394 604.429C576.316 636.084 610.025 604.007 569.311 600.742C564.255 600.321 559.725 601.163 556.143 602.585C522.856 615.226 555.722 636.61 521.855 605.377C541.554 570.878 590.958 570.299 611.394 604.429ZM571.049 607.01C582.689 609.011 594.751 621.547 588.061 631.712C584.164 637.611 581.636 628.92 546.347 634.135C537.762 635.399 545.241 602.585 571.049 607.01ZM684.448 696.338C694.402 679.378 718.525 680.537 727.163 697.655C715.997 715.089 725.267 710.19 705.41 710.19C687.239 710.19 696.72 715.036 684.448 696.338ZM849.726 607.01C861.419 609.011 873.428 621.547 866.739 631.712C862.947 637.453 858.733 629.184 825.024 634.135C816.492 635.399 823.971 602.585 849.726 607.01ZM848.041 600.689C842.985 600.268 838.455 601.111 834.873 602.533C801.586 615.174 834.452 636.558 800.585 605.324C820.284 570.825 869.688 570.299 890.124 604.376C855.046 636.084 888.755 603.955 848.041 600.689ZM817.492 580.306C780.623 600.847 811.277 609.749 781.203 590.419C768.825 582.465 849.726 513.942 905.873 579.463C916.091 591.367 913.352 585.046 894.812 600.373C878.379 574.144 844.459 565.295 817.492 580.306ZM904.872 569.561C874.903 540.645 828.606 537.59 795.213 562.082C762.768 585.889 784.468 589.945 761.82 579.99C753.656 576.408 749.706 579.305 763.295 562.925C805.536 511.835 883.962 511.097 927.151 562.082C941.267 578.726 937.475 575.724 927.783 579.99C911.245 587.311 923.043 587.048 904.872 569.561ZM934.894 562.082C889.966 503.987 803.482 503.829 757.922 559.923C743.227 577.988 753.867 575.46 735.485 571.457C724.372 569.035 724.424 571.984 730.323 562.135C782.361 475.44 907.558 474.913 960.334 561.239C966.917 572.089 966.18 568.824 954.118 571.457C938.528 574.828 946.587 577.146 934.894 562.082ZM866.739 489.661C862.999 495.402 858.733 487.133 825.024 492.084C816.439 493.348 823.918 460.534 849.726 464.958C861.367 466.907 873.428 479.443 866.739 489.661ZM816.386 480.549C800.638 460.271 795.898 465.643 808.433 452.792C827.974 432.724 859.839 431.618 880.696 450.79C895.549 464.484 889.545 460.113 874.376 479.127C864.737 450.948 824.655 451.896 816.386 480.549ZM795.898 459.217C777.042 443.311 775.567 449.737 783.309 439.94C814.227 400.754 873.059 399.173 905.873 437.412C916.091 449.315 913.352 442.995 894.812 458.322C871.795 421.558 818.282 421.98 795.898 459.217ZM895.971 420.031C860.892 394.328 813.7 399.542 784.679 429.09C765.56 448.525 783.309 445.523 753.709 434.673C791.737 370.574 880.275 364.675 927.151 420.031C941.267 436.727 937.475 433.672 927.783 437.939C907.769 446.787 926.467 442.363 895.971 420.031ZM933.314 417.871C887.912 361.988 802.376 361.83 757.08 419.03C742.437 437.517 755.184 432.672 729.533 428.247C720.79 426.72 756.5 370.837 817.176 357.722C911.982 337.181 974.186 425.825 960.123 428.247C935.421 432.514 948.483 436.569 933.314 417.871ZM866.739 347.609C863.789 352.139 868.53 348.505 845.618 348.505C821.074 348.505 826.13 352.508 822.917 347.609C816.492 337.813 835.927 314.269 856.995 325.435C863.947 329.122 872.638 338.603 866.739 347.609ZM816.386 338.498C800.638 318.22 795.898 323.592 808.433 310.74C827.921 290.726 859.786 289.514 880.696 308.739C895.549 322.433 889.545 318.009 874.376 337.075C864.737 308.897 824.655 309.845 816.386 338.498ZM795.898 317.166C777.094 301.312 775.567 307.633 783.309 297.889C814.227 258.702 873.059 257.122 905.873 295.361C916.091 307.264 913.352 300.944 894.812 316.271C871.795 279.507 818.282 279.928 795.898 317.166ZM895.971 277.98C860.892 252.277 813.7 257.491 784.679 287.039C765.56 306.474 783.309 303.472 753.709 292.622C791.789 228.47 880.275 222.676 927.151 278.032C941.267 294.729 937.475 291.674 927.783 295.94C907.769 304.736 926.467 300.312 895.971 277.98ZM761.135 217.672C729.165 190.126 682.973 190.6 651.687 216.092C632.936 231.314 649.685 229.312 620.98 217.251C664.222 161.315 747.862 162.053 790.367 217.778C763.137 229.47 777.463 231.735 761.135 217.672ZM482.458 217.672C450.487 190.126 404.296 190.6 373.01 216.092C354.259 231.314 370.955 229.26 342.303 217.251C385.44 161.368 469.132 161.947 511.69 217.778C484.459 229.47 498.733 231.735 482.458 217.672ZM487.356 231.261C460.705 249.643 479.403 247.22 457.703 233.473C439.848 222.149 416.831 221.254 397.712 232.367C373.852 246.272 394.604 249.432 366.847 230.629C399.029 193.391 456.176 194.392 487.356 231.261ZM426.786 230.524C446.116 230.524 469.606 245.43 464.076 251.381C444.588 272.344 458.967 266.866 443.113 256.754C436.898 252.751 428.524 250.855 420.255 252.645C389.179 259.44 414.882 277.032 391.023 251.381C383.175 242.901 411.511 230.524 426.786 230.524ZM443.219 264.496C451.383 271.975 447.59 271.501 441.007 284.774C403.453 280.982 420.834 293.201 405.77 270.184C413.934 256.28 431.947 254.173 443.219 264.496ZM536.392 346.977C541.606 354.299 541.027 348.61 517.536 357.511C472.293 296.361 381.647 296.625 336.404 357.037C312.281 348.189 311.438 354.72 318.549 345.029C372.904 271.238 483.195 271.923 536.392 346.977ZM511.69 359.829C484.512 371.522 498.733 373.787 482.458 359.724C450.487 332.177 404.296 332.651 373.01 358.143C354.259 373.365 370.955 371.311 342.303 359.302C385.44 303.472 469.08 304.051 511.69 359.829ZM487.356 373.312C460.705 391.694 479.403 389.272 457.703 375.525C439.848 364.201 416.831 363.305 397.712 374.419C373.852 388.323 394.604 391.484 366.847 372.68C399.029 335.443 456.176 336.443 487.356 373.312ZM426.786 372.575C447.801 372.575 469.027 388.113 464.076 393.432C444.588 414.395 458.967 408.917 443.113 398.805C436.898 394.802 428.524 392.906 420.255 394.697C389.179 401.491 414.882 419.083 391.023 393.432C383.175 384.953 411.511 372.575 426.786 372.575ZM443.219 406.547C451.383 414.026 447.59 413.552 441.007 426.825C403.453 423.033 420.834 435.253 405.77 412.236C413.987 398.225 432.053 396.329 443.219 406.547ZM536.392 489.029C541.554 496.297 541.08 490.661 517.536 499.563C472.451 438.623 381.858 438.36 336.404 499.089C312.281 490.24 311.438 496.771 318.549 487.08C372.904 413.289 483.195 413.974 536.392 489.029ZM511.69 501.88C484.512 513.573 498.68 515.785 482.458 501.775C450.487 474.228 404.296 474.702 373.01 500.195C354.206 515.469 371.061 513.415 342.303 501.353C385.387 445.576 469.027 446.05 511.69 501.88ZM462.075 495.56C469.08 499.036 489.99 513.468 485.934 516.364C466.446 530.164 473.715 531.112 466.078 524.054C444.746 504.303 412.143 503.355 389.759 521.947C379.857 530.164 388.758 530.269 369.165 516.417C362.159 511.361 410.827 469.909 462.075 495.56ZM466.394 533.061C440.164 560.028 463.813 549.231 438.794 538.486C431.368 535.273 423.889 535.273 416.568 537.854C389.811 547.387 414.619 559.133 387.915 532.165C409.194 508.253 446.168 509.201 466.394 533.061ZM448.486 555.604C437.32 573.09 446.537 568.139 426.733 568.139C408.509 568.139 417.937 572.932 405.718 554.287C415.778 537.275 439.901 538.591 448.486 555.604ZM539.289 635.346C515.429 640.139 519.116 643.668 516.061 639.665C471.292 581.886 385.545 581.412 339.775 636.558C335.298 641.93 338.037 641.614 332.138 639.665C314.546 633.871 308.173 639.665 326.818 618.913C385.861 553.181 490.938 561.239 539.289 635.346ZM426.786 601.743C480.983 601.743 513.375 643.247 510.584 644.458C489.41 653.781 494.361 656.098 490.306 651.569C461.285 619.282 412.301 613.33 376.433 639.665C353.153 656.73 371.482 656.256 344.62 644.458C338.879 641.93 374.537 601.743 426.786 601.743ZM462.075 637.611C469.08 641.087 489.99 655.519 485.934 658.416C466.446 672.215 473.715 673.163 466.078 666.105C444.693 646.302 412.091 645.406 389.759 663.999C379.857 672.215 388.758 672.321 369.165 658.468C362.159 653.412 410.827 611.961 462.075 637.611ZM466.394 675.112C440.164 702.027 463.813 691.282 438.794 680.537C431.368 677.324 423.889 677.324 416.568 679.905C389.811 689.438 414.672 701.236 387.915 674.217C409.247 650.199 446.221 651.305 466.394 675.112ZM448.486 697.655C437.32 715.141 446.537 710.19 426.733 710.19C408.509 710.19 417.937 714.983 405.718 696.338C415.778 679.273 439.953 680.695 448.486 697.655ZM984.14 710.19C965.917 710.19 975.345 714.983 963.125 696.338C973.08 679.326 997.255 680.59 1005.84 697.655C994.727 715.141 1004 710.19 984.14 710.19ZM996.202 680.537C988.881 677.377 981.402 677.272 973.975 679.905C947.219 689.438 972.079 701.236 945.323 674.217C966.549 650.252 1003.52 651.147 1023.75 675.059C997.519 702.079 1021.17 691.334 996.202 680.537ZM1023.48 666.105C1001.89 646.091 969.287 645.617 947.166 663.999C937.264 672.215 946.165 672.321 926.572 658.468C919.514 653.465 968.181 612.066 1019.48 637.664C1026.49 641.14 1047.4 655.571 1043.34 658.468C1023.59 672.426 1031.17 673.163 1023.48 666.105ZM933.788 639.665C910.508 656.73 928.837 656.256 901.975 644.458C896.287 641.983 931.892 601.743 984.14 601.743C1037.92 601.743 1070.94 643.141 1067.94 644.458C1046.77 653.781 1051.72 656.098 1047.66 651.569C1018.53 619.176 969.551 613.488 933.788 639.665ZM897.182 636.61C892.705 641.983 895.444 641.667 889.545 639.718C872.164 633.977 865.58 639.718 884.225 618.966C943.426 553.128 1048.4 561.45 1096.7 635.399C1072.26 640.297 1076.63 643.826 1073.47 639.718C1028.44 581.623 942.742 581.728 897.182 636.61ZM984.14 568.139C965.917 568.139 975.345 572.932 963.125 554.287C973.08 537.327 997.203 538.486 1005.84 555.604C994.727 573.037 1004 568.139 984.14 568.139ZM996.202 538.486C988.775 535.273 981.296 535.273 973.975 537.854C947.219 547.44 972.079 559.185 945.323 532.165C966.601 508.148 1003.58 509.201 1023.75 533.008C997.519 560.028 1021.17 549.283 996.202 538.486ZM1023.48 524.054C1002.1 504.25 969.498 503.408 947.166 521.947C937.264 530.164 946.165 530.269 926.572 516.417C919.409 511.361 968.234 470.015 1019.48 495.612C1026.49 499.089 1047.4 513.52 1043.34 516.417C1023.85 530.164 1031.12 531.112 1023.48 524.054ZM1039.81 501.775C1007.84 474.228 961.65 474.702 930.364 500.195C911.614 515.416 928.31 513.362 899.658 501.353C942.794 445.523 1026.43 446.05 1069.04 501.88C1041.87 513.626 1056.09 515.785 1039.81 501.775ZM893.759 499.089C869.636 490.24 868.793 496.771 875.903 487.08C930.154 413.447 1040.39 413.816 1093.75 489.081C1098.91 496.35 1098.43 490.714 1074.89 499.615C1029.59 438.307 938.897 438.781 893.759 499.089ZM963.178 412.236C971.342 398.331 989.355 396.224 1000.63 406.547C1008.84 414.079 1005 413.605 998.414 426.825C960.86 423.033 978.241 435.253 963.178 412.236ZM1000.52 398.805C994.306 394.802 985.931 392.906 977.662 394.697C946.587 401.491 972.29 419.083 948.43 393.432C940.582 384.953 968.919 372.575 984.14 372.575C1005.16 372.575 1026.38 388.113 1021.43 393.432C1001.94 414.448 1016.37 408.97 1000.52 398.805ZM1015.06 375.525C997.15 364.201 974.133 363.305 955.067 374.419C931.207 388.323 951.906 391.431 924.202 372.68C956.436 335.443 1013.58 336.549 1044.71 373.365C1018.11 391.694 1036.81 389.272 1015.06 375.525ZM1039.81 359.724C1007.84 332.177 961.65 332.651 930.364 358.143C911.614 373.418 928.363 371.364 899.658 359.302C942.847 303.419 1026.49 303.999 1069.04 359.829C1041.87 371.522 1056.14 373.787 1039.81 359.724ZM893.759 357.037C869.636 348.189 868.793 354.72 875.903 345.029C930.259 271.238 1040.5 271.923 1093.75 347.03C1098.91 354.299 1098.43 348.663 1074.89 357.564C1029.65 296.362 939.002 296.572 893.759 357.037ZM963.178 270.184C971.342 256.28 989.407 254.225 1000.63 264.496C1008.84 272.028 1005 271.554 998.414 284.774C960.86 280.982 978.241 293.201 963.178 270.184ZM1000.52 256.754C994.306 252.751 985.931 250.855 977.662 252.645C946.587 259.44 972.29 277.032 948.43 251.381C940.53 242.901 968.919 230.524 984.14 230.524C1003.47 230.524 1026.96 245.43 1021.43 251.381C1001.94 272.397 1016.37 266.866 1000.52 256.754ZM1015.06 233.473C997.203 222.149 974.186 221.254 955.067 232.367C931.154 246.272 951.906 249.38 924.202 230.629C956.436 193.391 1013.58 194.498 1044.71 231.314C1018.11 249.643 1036.81 247.22 1015.06 233.473ZM1039.81 217.672C1007.89 190.179 961.703 190.547 930.364 216.092C911.614 231.314 928.363 229.312 899.658 217.251C942.847 161.368 1026.49 161.947 1069.04 217.778C1041.87 229.47 1056.14 231.735 1039.81 217.672ZM927.783 153.836C911.245 161.105 923.043 160.894 904.872 143.355C870.531 110.225 817.124 111.911 784.679 144.935C765.56 164.37 783.309 161.368 753.709 150.518C791.21 87.2613 878.748 79.9401 926.414 135.086C941.583 152.678 937.317 149.675 927.783 153.836ZM649.106 153.836C632.568 161.105 644.366 160.894 626.195 143.355C592.012 110.383 538.552 111.806 506.001 144.935C486.882 164.37 504.632 161.368 475.031 150.518C512.638 87.1032 600.176 80.0455 647.737 135.086C662.906 152.678 658.639 149.675 649.106 153.836ZM370.429 153.836C353.89 161.105 365.688 160.894 347.517 143.355C313.176 110.225 259.769 111.911 227.324 144.935C208.205 164.37 225.955 161.368 196.354 150.518C233.855 87.3139 321.34 79.8875 369.059 135.086C384.176 152.678 379.909 149.675 370.429 153.836ZM225.902 155.785C256.977 116.388 316.02 115.387 348.465 153.257C358.683 165.16 355.944 158.84 337.405 174.167C314.335 137.298 260.822 137.93 238.543 175.062C219.74 159.261 218.212 165.582 225.902 155.785ZM251.078 168.689C270.566 148.675 302.432 147.463 323.342 166.688C338.195 180.382 332.19 175.958 317.021 195.024C307.33 166.793 267.301 167.846 259.031 196.446C243.23 176.168 238.543 181.541 251.078 168.689ZM299.587 183.332C306.593 187.018 315.23 196.552 309.331 205.506C306.329 210.035 311.333 206.401 288.211 206.401C263.666 206.401 268.723 210.404 265.51 205.506C258.873 195.446 278.835 172.323 299.587 183.332ZM402.715 286.143C378.066 290.41 391.075 294.465 375.906 275.82C330.505 219.885 244.969 219.779 199.672 276.979C185.03 295.466 197.776 290.62 172.126 286.196C163.435 284.669 198.988 228.786 259.769 215.671C354.68 195.024 416.778 283.721 402.715 286.143ZM369.797 277.98C383.912 294.623 380.12 291.621 370.429 295.887C350.414 304.683 369.112 300.312 338.616 277.98C303.485 252.224 256.24 257.544 227.324 287.039C208.205 306.474 225.955 303.472 196.354 292.622C234.382 228.47 322.815 222.571 369.797 277.98ZM225.902 297.889C256.819 258.702 315.652 257.122 348.465 295.361C358.683 307.264 355.944 300.944 337.405 316.271C314.44 279.56 260.928 279.876 238.543 317.166C219.74 301.312 218.212 307.633 225.902 297.889ZM251.078 310.74C270.566 290.726 302.432 289.514 323.342 308.739C338.195 322.433 332.19 318.009 317.021 337.075C307.33 308.739 267.248 309.95 259.031 338.498C243.23 318.22 238.543 323.645 251.078 310.74ZM299.587 325.383C306.593 329.07 315.23 338.603 309.331 347.557C306.382 352.086 311.122 348.452 288.211 348.452C263.772 348.452 268.723 352.455 265.51 347.557C259.084 337.813 278.519 314.217 299.587 325.383ZM402.715 428.195C378.066 432.461 391.075 436.517 375.906 417.871C330.505 361.936 244.969 361.83 199.672 419.03C185.03 437.517 197.776 432.672 172.126 428.247C163.699 426.773 198.724 370.942 259.769 357.722C354.944 337.023 416.673 425.772 402.715 428.195ZM369.797 420.031C383.912 436.675 380.12 433.672 370.429 437.939C350.414 446.735 369.112 442.363 338.616 420.031C303.485 394.275 256.293 399.595 227.324 429.09C208.205 448.525 225.955 445.523 196.354 434.673C234.382 370.521 322.815 364.675 369.797 420.031ZM225.902 439.94C256.819 400.754 315.652 399.173 348.465 437.412C358.683 449.315 355.944 442.995 337.405 458.322C314.44 421.611 260.928 421.927 238.543 459.217C219.687 443.311 218.212 449.737 225.902 439.94ZM251.078 452.792C270.619 432.724 302.484 431.618 323.342 450.79C338.195 464.484 332.19 460.113 317.021 479.127C307.33 450.79 267.248 452.002 259.031 480.549C243.23 460.271 238.543 465.696 251.078 452.792ZM292.319 464.906C304.012 466.907 316.02 479.443 309.331 489.608C305.592 495.349 301.22 487.08 267.617 492.031C259.084 493.348 266.563 460.534 292.319 464.906ZM402.979 561.187C409.51 571.931 408.825 568.771 396.764 571.405C381.173 574.828 389.232 577.146 377.539 562.082C332.822 504.25 246.338 503.566 200.568 559.923C185.873 577.988 196.512 575.46 178.13 571.457C167.017 569.035 167.017 571.984 172.969 562.135C225.165 475.071 350.361 475.124 402.979 561.187ZM205.887 562.925C247.918 512.046 326.291 510.887 369.744 562.082C383.86 578.726 380.067 575.724 370.376 579.99C353.838 587.258 365.636 587.048 347.465 569.509C317.548 540.645 271.251 537.538 237.805 562.029C205.361 585.836 227.061 589.892 204.413 579.937C196.301 576.408 192.351 579.305 205.887 562.925ZM348.465 579.411C358.683 591.314 355.944 584.994 337.405 600.321C320.971 574.091 287.052 565.242 260.138 580.253C223.268 600.795 253.922 609.696 223.848 590.366C211.418 582.465 292.266 513.942 348.465 579.411ZM332.717 604.429C297.691 636.136 331.347 604.007 290.633 600.742C285.577 600.321 281.048 601.163 277.466 602.585C244.178 615.226 277.045 636.61 243.178 605.377C262.876 570.878 312.281 570.299 332.717 604.429ZM292.319 607.01C304.012 609.011 316.02 621.547 309.331 631.712C305.539 637.453 301.326 629.184 267.617 634.135C259.084 635.399 266.563 602.585 292.319 607.01ZM402.979 703.238C409.563 714.088 408.772 710.822 396.764 713.456C381.173 716.879 389.232 719.197 377.539 704.133C332.664 646.144 246.18 645.828 200.568 701.974C185.873 720.04 196.565 717.511 178.13 713.509C167.017 711.086 167.017 714.035 172.969 704.186C225.112 617.122 350.361 617.175 402.979 703.238ZM205.887 704.976C248.287 653.675 326.818 653.359 369.744 704.133C383.86 720.777 380.067 717.775 370.376 722.041C353.838 729.31 365.636 729.099 347.465 711.56C317.127 682.275 270.83 679.905 237.805 704.081C205.466 727.782 227.008 731.943 204.413 721.989C196.301 718.46 192.351 721.409 205.887 704.976ZM348.465 721.462C358.683 733.365 355.944 727.045 337.405 742.372C320.971 716.142 287.052 707.294 260.138 722.305C223.268 742.846 253.922 751.747 223.848 732.417C211.576 724.622 292.266 655.888 348.465 721.462ZM332.717 746.48C297.691 778.135 331.347 746.059 290.633 742.793C285.577 742.372 281.048 743.215 277.466 744.637C244.178 757.277 277.045 778.661 243.178 747.428C262.876 712.929 312.228 712.35 332.717 746.48ZM292.319 749.061C304.012 751.062 316.02 763.598 309.331 773.763C305.434 779.715 302.853 771.024 267.617 776.186C259.084 777.45 266.563 744.637 292.319 749.061ZM405.77 838.389C415.778 821.324 439.901 822.746 448.486 839.706C437.32 857.193 446.537 852.242 426.733 852.242C408.562 852.242 417.99 857.035 405.77 838.389ZM684.448 838.389C694.402 821.43 718.525 822.588 727.163 839.706C716.05 857.087 725.267 852.242 705.41 852.242C687.239 852.242 696.667 857.035 684.448 838.389ZM963.178 838.389C973.185 821.324 997.308 822.746 1005.89 839.706C994.727 857.14 1004 852.242 984.14 852.242C965.969 852.242 975.397 857.035 963.178 838.389ZM1128.4 749.061C1140.1 751.062 1152.11 763.598 1145.42 773.763C1141.52 779.662 1138.94 771.024 1103.7 776.186C1095.17 777.45 1102.65 744.637 1128.4 749.061ZM1126.72 742.793C1121.66 742.372 1117.13 743.215 1113.55 744.637C1080.26 757.33 1113.13 778.661 1079.26 747.428C1098.96 712.929 1148.37 712.35 1168.8 746.48C1133.78 778.135 1167.43 746.006 1126.72 742.793ZM1096.17 722.357C1061.04 741.95 1089.16 751.273 1059.88 732.47C1047.71 724.622 1128.35 655.94 1184.55 721.514C1194.77 733.418 1192.03 727.097 1173.49 742.424C1157.11 716.247 1123.24 707.294 1096.17 722.357ZM1183.6 711.612C1153.32 682.381 1106.97 679.905 1073.94 704.133C1041.6 727.835 1063.15 731.996 1040.55 722.041C1032.39 718.46 1028.44 721.409 1042.02 704.976C1084.95 653.201 1163.43 653.833 1205.88 704.133C1220 720.777 1216.2 717.775 1206.51 722.041C1189.92 729.362 1201.77 729.152 1183.6 711.612ZM1213.62 704.133C1169.07 646.512 1082.58 645.406 1036.65 701.974C1021.96 720.04 1032.65 717.511 1014.22 713.509C1003.1 711.086 1003.1 714.035 1009.05 704.186C1060.93 617.596 1186.24 616.859 1239.06 703.291C1245.7 714.088 1244.86 710.875 1232.85 713.509C1217.21 716.879 1225.26 719.197 1213.62 704.133ZM1128.4 607.01C1140.1 609.011 1152.11 621.547 1145.42 631.712C1141.52 637.611 1138.99 628.92 1103.7 634.135C1095.17 635.399 1102.65 602.585 1128.4 607.01ZM1126.72 600.689C1121.66 600.268 1117.13 601.111 1113.55 602.533C1080.26 615.174 1113.13 636.558 1079.26 605.324C1098.96 570.878 1148.37 570.246 1168.8 604.376C1133.78 636.084 1167.43 603.955 1126.72 600.689ZM1096.17 580.306C1061.04 599.899 1089.16 609.222 1059.88 590.419C1047.5 582.465 1128.35 513.942 1184.55 579.463C1194.77 591.367 1192.03 585.046 1173.49 600.373C1157.11 574.196 1123.24 565.242 1096.17 580.306ZM1183.6 569.561C1153.53 540.54 1107.28 537.696 1073.94 562.082C1041.5 585.889 1063.2 589.945 1040.55 579.99C1032.39 576.408 1028.44 579.358 1042.02 562.925C1084.53 511.624 1162.74 511.255 1205.88 562.082C1220 578.778 1216.2 575.724 1206.51 579.99C1189.92 587.311 1201.77 587.048 1183.6 569.561ZM1213.62 562.082C1168.8 504.145 1082.32 503.671 1036.65 559.923C1021.96 577.988 1032.65 575.46 1014.22 571.457C1003.1 569.035 1003.1 571.984 1009.05 562.135C1061.25 475.124 1186.5 475.176 1239.06 561.239C1245.7 572.037 1244.86 568.824 1232.85 571.457C1217.21 574.828 1225.26 577.146 1213.62 562.082ZM1145.42 489.661C1142.41 494.19 1147.42 490.556 1124.3 490.556C1099.86 490.556 1104.81 494.559 1101.59 489.661C1095.17 479.864 1114.66 456.321 1135.67 467.487C1142.68 471.173 1151.32 480.654 1145.42 489.661ZM1095.12 480.549C1079.37 460.271 1074.63 465.643 1087.16 452.792C1106.65 432.777 1138.52 431.566 1159.43 450.79C1174.28 464.484 1168.28 460.113 1153.11 479.127C1143.41 450.896 1103.33 451.949 1095.12 480.549ZM1074.57 459.217C1055.77 443.311 1054.24 449.737 1061.99 439.94C1092.9 400.754 1151.74 399.173 1184.55 437.412C1194.77 449.315 1192.03 442.995 1173.49 458.322C1150.47 421.558 1096.96 421.98 1074.57 459.217ZM1174.7 420.031C1139.78 394.433 1092.54 399.437 1063.41 429.09C1044.34 448.525 1062.04 445.523 1032.44 434.673C1070.47 370.521 1158.9 364.675 1205.88 420.031C1220 436.675 1216.2 433.672 1206.51 437.939C1186.39 446.787 1205.3 442.468 1174.7 420.031ZM1211.99 417.871C1166.59 361.936 1081.05 361.83 1035.76 419.03C1021.11 437.517 1033.86 432.672 1008.21 428.247C999.467 426.72 1035.13 370.837 1095.85 357.722C1191.03 337.075 1252.76 425.772 1238.8 428.195C1214.2 432.461 1227.16 436.517 1211.99 417.871ZM1145.42 347.609C1142.41 352.139 1147.42 348.505 1124.3 348.505C1099.86 348.505 1104.81 352.508 1101.59 347.609C1095.17 337.813 1114.66 314.269 1135.67 325.435C1142.68 329.122 1151.32 338.603 1145.42 347.609ZM1095.12 338.498C1079.37 318.22 1074.63 323.592 1087.16 310.74C1106.65 290.726 1138.52 289.514 1159.43 308.739C1174.28 322.433 1168.28 318.009 1153.11 337.075C1143.41 308.897 1103.33 309.845 1095.12 338.498ZM1074.57 317.166C1055.77 301.312 1054.24 307.633 1061.99 297.889C1092.9 258.702 1151.74 257.122 1184.55 295.361C1194.77 307.317 1192.03 300.944 1173.49 316.271C1150.47 279.507 1096.96 279.928 1074.57 317.166ZM1174.7 277.98C1139.78 252.382 1092.54 257.386 1063.41 287.039C1044.34 306.474 1062.04 303.472 1032.44 292.622C1070.47 228.47 1158.9 222.623 1205.88 278.032C1220 294.676 1216.2 291.674 1206.51 295.94C1186.39 304.736 1205.3 300.417 1174.7 277.98ZM1211.99 275.82C1166.59 219.885 1081.05 219.779 1035.76 276.979C1021.11 295.466 1033.81 290.62 1008.21 286.196C999.678 284.721 1034.81 228.891 1095.85 215.671C1191.19 195.024 1252.76 283.826 1238.8 286.196C1214.15 290.41 1227.16 294.465 1211.99 275.82ZM1145.42 205.506C1142.41 210.035 1147.42 206.401 1124.3 206.401C1099.86 206.401 1104.81 210.404 1101.59 205.506C1095.17 195.709 1114.66 172.165 1135.67 183.332C1142.68 187.071 1151.32 196.552 1145.42 205.506ZM1095.12 196.446C1079.37 176.168 1074.63 181.541 1087.16 168.689C1106.65 148.675 1138.52 147.463 1159.43 166.688C1174.28 180.382 1168.28 175.958 1153.11 195.024C1143.41 166.846 1103.33 167.794 1095.12 196.446ZM1074.57 175.115C1055.77 159.261 1054.24 165.582 1061.99 155.838C1092.9 116.598 1151.95 115.282 1184.55 153.31C1194.77 165.213 1192.03 158.893 1173.49 174.22C1150.42 137.351 1096.91 137.983 1074.57 175.115ZM1183.6 143.408C1149.47 110.436 1096.01 111.806 1063.41 144.988C1044.29 164.423 1062.04 161.421 1032.44 150.571C1070.05 87.2086 1157.53 80.0455 1205.14 135.138C1220.31 152.678 1216.05 149.675 1206.51 153.889C1189.92 161.105 1201.77 160.947 1183.6 143.408ZM1096.7 67.1413C1089.22 68.616 1081.95 70.7228 1074.89 73.409C1029.7 12.3644 939.318 12.0484 893.759 72.935C886.701 70.3542 879.327 68.3527 871.795 66.9306C925.045 -14.234 1043.55 -14.2867 1096.7 67.1413ZM861.841 71.5129C927.994 79.5188 972.974 141.88 960.123 144.092C932.366 148.938 952.275 153.52 927.678 127.449C882.119 79.1501 806.379 80.5722 762.347 128.818C739.225 154.152 758.818 149.201 729.586 144.092C720.105 142.46 771.143 60.5575 861.841 71.5129ZM818.019 67.1413C810.54 68.616 803.219 70.7228 796.214 73.409C751.023 12.3644 660.641 12.0484 615.081 72.935C608.023 70.3542 600.65 68.3527 593.118 66.9306C646.315 -14.234 764.822 -14.2867 818.019 67.1413ZM583.163 71.5129C649.369 79.5188 694.297 141.88 681.446 144.092C653.741 148.885 673.334 153.204 649.001 127.449C603.336 79.0447 527.649 80.6248 483.669 128.818C460.547 154.152 479.982 149.149 450.909 144.092C441.323 142.46 492.518 60.5575 583.163 71.5129ZM539.289 67.1413C531.81 68.616 524.489 70.7228 517.484 73.409C472.293 12.3644 381.911 12.0484 336.351 72.935C329.293 70.3542 321.92 68.3527 314.388 66.9306C367.637 -14.234 486.145 -14.2867 539.289 67.1413ZM304.433 71.5129C370.692 79.5714 415.514 141.88 402.715 144.092C374.906 148.938 394.92 153.52 370.271 127.449C324.606 79.0447 248.919 80.6775 204.939 128.818C181.817 154.152 201.41 149.201 172.178 144.092C162.698 142.46 213.683 60.5049 304.433 71.5129ZM35.7103 66.8779C88.9598 -14.234 207.467 -14.2867 260.612 67.1413C253.132 68.616 245.864 70.7228 238.806 73.409C193.615 12.3644 103.233 12.0484 57.6737 72.935C50.6159 70.3015 43.2948 68.3 35.7103 66.8779ZM82.9554 85.1545C76.793 81.3622 70.3146 78.044 63.5728 75.1998C106.604 19.5275 190.034 19.4749 232.96 75.7265C226.271 78.5707 219.898 81.9942 213.788 85.7865C179.868 44.9672 117.507 44.4405 82.9554 85.1545ZM104.866 101.851C99.6518 97.0052 94.0688 92.5283 88.117 88.5253C120.246 51.4456 177.182 52.025 208.626 89.21C202.727 93.2656 197.197 97.7953 191.982 102.641C169.176 76.0425 128.41 75.5158 104.866 101.851ZM123.301 122.656C119.034 116.757 114.347 111.226 109.238 106.064C130.253 82.3103 167.175 82.679 187.663 106.907C182.554 112.174 177.867 117.81 173.601 123.762C161.908 105.748 135.941 105.064 123.301 122.656ZM169.808 129.45C167.069 133.716 164.594 138.141 162.329 142.723C125.039 138.931 142.051 150.992 127.093 128.133C136.942 111.279 161.065 112.122 169.808 129.45ZM39.8712 202.925C94.1214 129.292 204.36 129.661 257.715 204.926C262.876 212.195 262.402 206.559 238.859 215.46C193.563 154.31 102.97 154.521 57.7264 214.986C33.6035 206.138 32.7608 212.616 39.8712 202.925ZM63.5728 217.304C106.762 161.421 190.402 162 232.96 217.83C205.729 229.523 220.056 231.788 203.728 217.725C171.757 190.179 125.565 190.653 94.2794 216.145C75.5289 231.367 92.278 229.312 63.5728 217.304ZM88.117 230.577C120.351 193.339 177.498 194.445 208.626 231.261C181.975 249.643 200.673 247.22 178.973 233.473C161.276 222.255 138.206 221.149 118.982 232.367C95.1222 246.22 115.822 249.327 88.117 230.577ZM112.345 251.381C104.445 242.901 132.834 230.524 148.056 230.524C168.966 230.524 190.35 246.009 185.346 251.381C165.805 272.397 180.237 266.919 164.383 256.754C158.168 252.751 149.794 250.855 141.525 252.645C110.502 259.44 136.205 277.032 112.345 251.381ZM162.329 284.774C124.775 280.982 142.157 293.201 127.093 270.184C135.257 256.28 153.323 254.225 164.541 264.496C172.705 271.975 168.913 271.501 162.329 284.774ZM39.8712 344.976C94.1214 271.343 204.36 271.712 257.715 346.977C262.876 354.246 262.402 348.61 238.859 357.511C193.773 296.678 103.181 296.309 57.7264 357.037C33.6035 348.189 32.7608 354.667 39.8712 344.976ZM63.5728 359.355C106.762 303.472 190.402 304.051 232.96 359.882C205.729 371.574 220.056 373.839 203.728 359.776C172.02 332.493 125.881 332.493 94.2794 358.196C75.4762 373.418 92.3306 371.364 63.5728 359.355ZM88.117 372.628C120.351 335.39 177.498 336.496 208.626 373.312C181.975 391.694 200.673 389.272 178.973 375.525C161.118 364.201 138.101 363.305 118.982 374.419C95.1222 388.271 115.822 391.378 88.117 372.628ZM112.345 393.432C104.497 384.953 132.834 372.575 148.056 372.575C168.966 372.575 190.35 388.06 185.346 393.432C165.805 414.448 180.237 408.97 164.383 398.805C158.168 394.802 149.794 392.906 141.525 394.697C110.502 401.491 136.205 419.083 112.345 393.432ZM127.093 412.236C135.257 398.331 153.27 396.224 164.541 406.547C172.758 414.026 168.913 413.552 162.329 426.825C124.775 423.033 142.157 435.253 127.093 412.236ZM35.7103 493.032C84.2721 419.03 189.138 411.34 248.023 476.862C266.827 497.772 260.664 492.242 244.284 497.614C230.906 502.038 219.529 458.217 155.587 453.95C121.773 451.738 89.9078 464.59 67.4177 487.554C51.1953 504.198 66.1536 498.825 35.7103 493.032ZM65.8903 502.407C59.2538 499.51 98.7037 456.953 153.902 459.955C202.938 462.588 235.435 500.827 231.854 502.407C197.513 517.523 229.484 514.31 189.77 491.978C161.486 476.072 125.671 477.125 97.703 497.614C74.3702 514.732 92.752 514.205 65.8903 502.407ZM90.4872 516.364C87.801 514.468 87.011 515.364 92.3307 510.097C145.317 457.743 214.631 511.15 207.257 516.364C187.769 530.164 195.037 531.112 187.4 524.054C166.121 504.356 133.571 503.25 111.081 521.947C101.179 530.111 110.08 530.217 90.4872 516.364ZM112.345 535.484C109.29 532.165 107.078 532.798 116.243 525.634C150.004 499.352 192.246 528.11 185.346 535.484C165.858 556.446 180.184 550.969 164.383 540.856C158.221 536.906 149.899 534.904 141.525 536.748C110.502 543.542 136.205 561.134 112.345 535.484ZM127.093 554.287C135.257 540.382 153.27 538.328 164.541 548.599C172.705 556.078 168.913 555.604 162.329 568.877C124.723 565.084 142.157 577.356 127.093 554.287ZM53.4601 639.665C36.079 633.924 29.4952 639.665 48.1405 618.913C106.92 553.55 211.997 560.923 260.612 635.346C236.173 640.245 240.544 643.773 237.384 639.665C192.404 581.623 106.657 581.675 61.0973 636.558C56.673 641.983 59.3592 641.614 53.4601 639.665ZM65.8903 644.458C60.2019 641.983 95.8595 601.743 148.056 601.743C201.884 601.743 234.803 643.141 231.854 644.458C210.68 653.781 215.631 656.098 211.576 651.569C182.607 619.334 133.624 613.277 97.703 639.665C74.4228 656.73 92.752 656.256 65.8903 644.458ZM90.4872 658.416C83.4294 653.412 132.097 612.013 183.397 637.611C190.402 641.087 211.312 655.519 207.257 658.416C187.769 672.215 195.037 673.163 187.4 666.105C166.069 646.354 133.466 645.406 111.081 663.999C101.179 672.163 110.08 672.268 90.4872 658.416ZM109.238 674.269C130.516 650.199 167.544 651.305 187.663 675.112C161.434 702.027 185.083 691.334 160.064 680.537C152.743 677.377 145.264 677.272 137.838 679.905C111.134 689.491 135.941 701.236 109.238 674.269ZM127.093 696.338C137.048 679.326 161.223 680.59 169.808 697.655C158.642 715.089 167.912 710.19 148.056 710.19C129.884 710.19 139.312 714.983 127.093 696.338ZM53.4601 781.716C35.7103 775.87 29.4426 781.769 48.1405 760.964C107.078 695.39 212.102 703.185 260.612 777.397C236.752 782.19 240.439 785.719 237.384 781.716C192.562 723.937 106.868 723.463 61.0973 778.609C56.673 784.034 59.3592 783.665 53.4601 781.716ZM65.8903 786.509C59.8332 783.823 96.3336 743.794 148.056 743.794C201.99 743.794 234.751 785.245 231.854 786.509C210.575 795.885 215.684 798.149 211.576 793.62C182.607 761.386 133.624 755.329 97.703 781.716C74.3702 798.887 92.752 798.36 65.8903 786.509ZM90.4872 800.467C83.3767 795.463 132.255 754.117 183.397 779.662C190.402 783.138 211.312 797.57 207.257 800.467C187.769 814.266 195.037 815.215 187.4 808.157C166.069 788.405 133.466 787.457 111.081 806.05C101.179 814.214 110.08 814.319 90.4872 800.467ZM109.238 816.321C130.464 792.356 167.491 793.304 187.663 817.163C161.434 844.078 185.083 833.386 160.064 822.588C152.743 819.428 145.264 819.323 137.838 821.956C111.134 831.542 135.994 843.34 109.238 816.321ZM127.093 838.389C137.1 821.324 161.223 822.746 169.808 839.706C158.642 857.14 167.912 852.242 148.056 852.242C129.884 852.242 139.312 857.035 127.093 838.389ZM148.898 1039.91C146.37 1019.52 143.789 1023.21 148.108 1023.21C154.639 1023.21 151.532 1018.57 148.898 1039.91ZM148.108 1017.15C139.681 1017.15 147.634 1014.94 130.622 986.129C121.194 970.17 157.852 958.003 169.861 981.81C150.057 1012.67 159.274 1017.15 148.108 1017.15ZM185.399 961.637C165.858 982.653 180.29 977.175 164.436 967.01C158.221 963.007 149.846 961.111 141.577 962.901C110.502 969.696 136.205 987.288 112.345 961.637C104.287 952.947 134.467 939.147 153.375 941.043C168.018 942.571 191.034 955.58 185.399 961.637ZM207.257 942.518C187.769 956.318 195.037 957.266 187.4 950.208C165.805 930.246 133.255 929.667 111.081 948.101C101.179 956.318 110.08 956.423 90.4872 942.571C83.3767 937.567 132.255 896.221 183.397 921.766C190.402 925.19 211.365 939.621 207.257 942.518ZM231.854 928.561C210.575 937.936 215.684 940.201 211.576 935.671C182.449 903.226 133.466 897.538 97.703 923.768C74.3175 940.885 92.752 940.359 65.8903 928.561C59.8332 925.927 96.3336 885.845 148.056 885.845C202.042 885.845 234.803 927.296 231.854 928.561ZM237.384 923.82C192.509 865.936 106.815 865.672 61.0973 920.713C56.6203 926.085 59.3592 925.769 53.4601 923.82C35.763 917.974 29.4952 923.873 48.1405 903.068C106.973 837.599 212.05 845.184 260.612 919.501C236.752 924.242 240.492 927.771 237.384 923.82ZM309.331 915.814C305.434 921.766 302.853 913.076 267.617 918.237C259.084 919.501 266.511 886.688 292.319 891.112C304.012 893.061 316.02 905.596 309.331 915.814ZM290.633 884.844C285.577 884.423 281.048 885.318 277.466 886.688C244.178 899.329 277.045 920.713 243.178 889.479C262.876 854.98 312.281 854.401 332.717 888.531C297.691 920.186 331.505 888.057 290.633 884.844ZM427.576 1039.91C425.048 1019.52 422.467 1023.21 426.786 1023.21C433.317 1023.21 430.209 1018.57 427.576 1039.91ZM426.786 1017.15C418.358 1017.15 426.259 1014.94 409.299 986.129C399.766 969.959 436.582 958.161 448.538 981.81C428.734 1012.73 437.952 1017.15 426.786 1017.15ZM464.076 961.637C444.588 982.6 458.967 977.122 443.113 967.01C436.898 963.007 428.524 961.111 420.255 962.901C389.179 969.696 414.882 987.288 391.023 961.637C382.964 952.947 413.144 939.147 432.053 941.043C446.695 942.571 469.712 955.58 464.076 961.637ZM485.934 942.518C466.446 956.318 473.715 957.266 466.078 950.208C444.746 930.457 412.143 929.509 389.759 948.101C379.857 956.318 388.758 956.423 369.165 942.571C362.107 937.567 410.774 896.116 462.075 921.766C469.132 925.19 490.042 939.621 485.934 942.518ZM510.531 928.561C489.252 937.936 494.361 940.201 490.253 935.671C461.39 903.542 412.407 897.327 376.38 923.768C352.995 940.885 371.429 940.359 344.568 928.561C338.879 926.032 374.59 885.845 426.733 885.845C480.667 885.845 513.428 927.296 510.531 928.561ZM516.061 923.82C471.292 866.041 385.545 865.567 339.775 920.713C335.298 926.085 338.037 925.769 332.138 923.82C314.704 918.079 308.173 923.82 326.818 903.068C385.966 837.231 490.99 845.553 539.289 919.501C515.429 924.242 519.169 927.771 516.061 923.82ZM588.061 915.814C584.164 921.713 581.636 913.023 546.347 918.237C537.814 919.501 545.241 886.688 571.049 891.112C582.689 893.061 594.751 905.596 588.061 915.814ZM569.311 884.844C564.255 884.423 559.725 885.266 556.143 886.688C522.803 899.381 555.722 920.713 521.855 889.479C541.554 855.033 590.958 854.401 611.394 888.531C576.369 920.186 610.183 888.057 569.311 884.844ZM706.253 1039.96C703.725 1019.57 701.144 1023.26 705.463 1023.26C711.994 1023.21 708.887 1018.57 706.253 1039.96ZM705.463 1017.15C697.036 1017.15 704.936 1014.94 687.977 986.129C678.549 970.065 715.207 958.056 727.216 981.81C707.412 1012.73 716.629 1017.15 705.463 1017.15ZM742.806 961.637C723.266 982.653 737.697 977.175 721.843 967.01C715.628 963.007 707.254 961.111 698.985 962.901C667.909 969.696 693.612 987.288 669.753 961.637C661.694 952.947 691.874 939.147 710.783 941.043C725.425 942.571 748.389 955.58 742.806 961.637ZM764.664 942.518C745.176 956.318 752.445 957.266 744.808 950.208C723.476 930.457 690.873 929.509 668.489 948.101C658.587 956.318 667.488 956.423 647.895 942.571C640.89 937.62 689.557 896.168 740.805 921.766C747.81 925.19 768.72 939.621 764.664 942.518ZM789.261 928.561C767.93 937.936 773.091 940.201 768.983 935.671C739.909 903.279 690.926 897.485 655.11 923.768C631.725 940.885 650.159 940.359 623.298 928.561C617.241 925.927 653.741 885.845 705.463 885.845C759.397 885.845 792.158 927.296 789.261 928.561ZM794.791 923.82C749.706 865.672 663.959 865.936 618.505 920.713C614.028 926.085 616.767 925.769 610.868 923.82C593.276 918.027 586.903 923.82 605.548 903.068C664.117 837.863 769.246 844.868 818.019 919.501C794.107 924.242 797.846 927.771 794.791 923.82ZM866.739 915.814C862.841 921.766 860.26 913.076 825.024 918.237C816.492 919.501 823.918 886.688 849.726 891.112C861.367 893.061 873.428 905.596 866.739 915.814ZM848.041 884.844C842.985 884.423 838.455 885.318 834.873 886.688C801.586 899.329 834.452 920.713 800.585 889.479C820.284 854.98 869.688 854.454 890.124 888.531C855.046 920.186 888.913 888.057 848.041 884.844ZM984.983 1039.91C982.455 1019.52 979.874 1023.21 984.193 1023.21C990.672 1023.21 987.564 1018.57 984.983 1039.91ZM984.14 1017.15C975.713 1017.15 983.666 1014.94 966.654 986.129C957.226 970.17 993.884 958.003 1005.89 981.81C986.142 1012.67 995.359 1017.15 984.14 1017.15ZM1021.48 961.637C1001.94 982.653 1016.37 977.175 1000.52 967.01C994.306 963.007 985.931 961.111 977.662 962.901C946.587 969.696 972.29 987.288 948.43 961.637C940.372 952.947 970.552 939.147 989.46 941.043C1004.05 942.571 1027.12 955.58 1021.48 961.637ZM1043.34 942.518C1023.85 956.318 1031.12 957.266 1023.48 950.208C1001.84 930.193 969.287 929.719 947.166 948.101C937.264 956.318 946.165 956.423 926.572 942.571C919.514 937.567 968.181 896.116 1019.48 921.766C1026.49 925.19 1047.4 939.621 1043.34 942.518ZM1067.94 928.561C1046.77 937.883 1051.72 940.201 1047.66 935.671C1018.53 903.226 969.498 897.538 933.788 923.768C910.402 940.885 928.837 940.359 901.975 928.561C896.287 926.032 931.944 885.845 984.14 885.845C1038.02 885.845 1070.94 927.244 1067.94 928.561ZM1073.47 923.82C1028.65 866.041 942.952 865.567 897.182 920.713C892.705 926.085 895.444 925.769 889.545 923.82C871.848 917.974 865.58 923.873 884.225 903.068C943.216 837.389 1048.29 845.342 1096.7 919.501C1072.84 924.242 1076.58 927.771 1073.47 923.82ZM1145.42 915.814C1141.52 921.713 1138.94 913.076 1103.7 918.237C1095.17 919.501 1102.6 886.688 1128.4 891.112C1140.1 893.061 1152.11 905.596 1145.42 915.814ZM1126.72 884.844C1121.66 884.423 1117.13 885.266 1113.55 886.688C1080.26 899.381 1113.13 920.713 1079.26 889.479C1098.96 855.033 1148.31 854.401 1168.8 888.531C1133.78 920.186 1167.59 888.057 1126.72 884.844ZM1263.66 1039.91C1261.13 1019.52 1258.55 1023.21 1262.87 1023.21C1269.4 1023.21 1266.29 1018.57 1263.66 1039.91ZM1262.87 1017.15C1254.44 1017.15 1262.34 1014.94 1245.38 986.129C1235.9 970.012 1272.61 958.108 1284.62 981.81C1263.71 1014.36 1274.51 1017.15 1262.87 1017.15ZM1300.16 961.637C1280.67 982.6 1295 977.122 1279.2 967.01C1273.04 963.112 1264.71 961.058 1256.34 962.901C1225.26 969.696 1250.97 987.288 1227.11 961.637C1219.05 952.947 1249.23 939.147 1268.14 941.043C1282.78 942.571 1305.8 955.58 1300.16 961.637ZM1322.02 942.518C1302.53 956.318 1309.8 957.266 1302.16 950.208C1280.83 930.457 1248.23 929.509 1225.84 948.101C1215.94 956.318 1224.84 956.423 1205.25 942.571C1198.14 937.514 1247.07 896.221 1298.16 921.766C1305.22 925.242 1326.13 939.621 1322.02 942.518ZM1346.62 928.561C1325.44 937.883 1330.39 940.201 1326.34 935.671C1297.42 903.49 1248.44 897.38 1212.47 923.768C1189.08 940.885 1207.51 940.359 1180.65 928.561C1175.02 926.085 1210.57 885.845 1262.82 885.845C1316.65 885.845 1349.62 927.244 1346.62 928.561ZM1424.15 915.814C1420.41 921.503 1416.04 913.286 1382.43 918.237C1373.85 919.501 1381.33 886.688 1407.13 891.112C1418.77 893.061 1430.84 905.596 1424.15 915.814ZM1405.4 884.844C1400.34 884.423 1395.81 885.318 1392.23 886.688C1358.94 899.381 1391.81 920.713 1357.94 889.479C1377.64 855.033 1427.04 854.401 1447.48 888.531C1412.56 920.133 1446.16 888.057 1405.4 884.844ZM1452.17 884.476C1435.84 858.351 1401.92 849.345 1374.9 864.408C1342.03 882.685 1367.32 893.008 1338.61 874.521C1326.23 866.568 1407.13 798.044 1463.28 863.566C1473.45 875.469 1470.71 869.096 1452.17 884.476ZM1320.7 847.027C1362.94 795.832 1441.63 795.358 1484.56 846.185C1498.67 862.828 1494.88 859.826 1485.19 864.092C1468.65 871.361 1480.45 871.15 1462.28 853.611C1432.1 824.484 1385.8 821.798 1352.62 846.132C1320.23 869.833 1341.82 873.994 1319.23 864.04C1311.06 860.511 1307.11 863.46 1320.7 847.027ZM1375.37 919.449C1350.99 924.347 1355.31 927.876 1352.15 923.768C1307.53 866.252 1221.84 865.251 1175.86 920.66C1171.38 926.032 1174.12 925.716 1168.22 923.768C1150.42 917.921 1144.2 923.82 1162.9 903.016C1221.89 837.389 1326.97 845.289 1375.37 919.449ZM1262.87 852.242C1244.65 852.242 1254.07 857.035 1241.86 838.389C1251.81 821.43 1275.93 822.588 1284.57 839.706C1273.46 857.14 1282.73 852.242 1262.87 852.242ZM1274.88 822.588C1267.4 819.375 1259.92 819.375 1252.65 821.956C1225.9 831.49 1250.7 843.235 1224 816.268C1245.23 792.25 1282.25 793.251 1302.43 817.111C1276.2 844.13 1299.84 833.386 1274.88 822.588ZM1322.02 800.467C1302.53 814.266 1309.8 815.215 1302.16 808.157C1280.83 788.405 1248.23 787.457 1225.84 806.05C1215.94 814.266 1224.84 814.372 1205.25 800.52C1198.14 795.463 1247.07 754.17 1298.16 779.715C1304.74 782.928 1326.07 797.623 1322.02 800.467ZM1346.62 786.509C1325.44 795.832 1330.39 798.149 1326.34 793.62C1297.26 761.28 1248.28 755.434 1212.47 781.716C1189.08 798.834 1207.51 798.307 1180.65 786.509C1174.6 783.876 1211.04 743.794 1262.82 743.794C1316.65 743.794 1349.62 785.193 1346.62 786.509ZM1424.15 773.763C1420.41 779.452 1416.04 771.235 1382.43 776.186C1373.85 777.45 1381.33 744.637 1407.13 749.061C1418.77 751.01 1430.84 763.545 1424.15 773.763ZM1405.4 742.793C1400.34 742.372 1395.81 743.215 1392.23 744.637C1358.94 757.33 1391.81 778.661 1357.94 747.428C1377.64 712.982 1427.04 712.35 1447.48 746.48C1412.3 778.293 1446.32 746.059 1405.4 742.793ZM1452.17 742.424C1435.84 716.3 1401.92 707.294 1374.9 722.357C1339.72 741.95 1367.89 751.326 1338.61 732.47C1326.23 724.517 1407.13 655.993 1463.28 721.514C1473.45 733.418 1470.71 727.045 1452.17 742.424ZM1320.7 704.976C1363.21 653.517 1441.84 653.517 1484.56 704.133C1498.67 720.777 1494.88 717.775 1485.19 722.041C1468.65 729.31 1480.45 729.099 1462.28 711.56C1431.78 682.117 1385.43 680.01 1352.62 704.081C1320.23 727.782 1341.82 731.943 1319.23 721.989C1311.06 718.46 1307.11 721.409 1320.7 704.976ZM1375.37 777.397C1350.99 782.296 1355.31 785.825 1352.15 781.716C1307.53 724.201 1221.84 723.2 1175.86 778.609C1171.38 783.981 1174.12 783.665 1168.22 781.716C1150.42 775.87 1144.2 781.769 1162.9 760.964C1221.52 695.706 1326.65 702.764 1375.37 777.397ZM1262.87 710.19C1244.65 710.19 1254.07 714.983 1241.86 696.338C1251.86 679.22 1276.04 680.748 1284.57 697.655C1273.46 715.089 1282.73 710.19 1262.87 710.19ZM1274.88 680.537C1267.4 677.324 1259.92 677.324 1252.65 679.905C1225.9 689.438 1250.76 701.236 1224 674.217C1245.33 650.146 1282.31 651.305 1302.43 675.059C1276.2 702.079 1299.84 691.334 1274.88 680.537ZM1322.02 658.416C1302.27 672.426 1309.85 673.163 1302.16 666.105C1280.83 646.354 1248.23 645.406 1225.84 663.999C1215.94 672.215 1224.84 672.321 1205.25 658.468C1198.14 653.412 1247.07 612.119 1298.16 637.664C1304.74 640.877 1326.07 655.571 1322.02 658.416ZM1346.62 644.458C1325.44 653.781 1330.39 656.098 1326.34 651.569C1297.32 619.282 1248.33 613.33 1212.47 639.665C1189.19 656.73 1207.51 656.256 1180.65 644.458C1174.96 641.93 1210.62 601.743 1262.82 601.743C1316.8 601.743 1349.62 643.141 1346.62 644.458ZM1424.15 631.712C1421.14 636.242 1426.1 632.607 1403.03 632.607C1378.64 632.607 1383.54 636.61 1380.32 631.712C1373.9 621.915 1393.39 598.372 1414.4 609.538C1421.35 613.225 1429.99 622.705 1424.15 631.712ZM1412.03 602.006C1407.66 600.637 1403.97 600.215 1398.97 600.9C1359.73 606.167 1392.44 637.137 1357.94 605.377C1377.64 570.931 1427.04 570.299 1447.48 604.429C1413.98 634.714 1446.11 612.698 1412.03 602.006ZM1460.59 593.947C1444.37 605.43 1459.75 599.952 1436.16 583.466C1416.3 569.561 1388.91 569.035 1368.11 584.783C1345.62 601.848 1361.68 606.536 1343.88 593.947C1336.66 588.838 1330.97 590.313 1348.04 573.88C1377.9 545.122 1425.15 543.964 1456.33 572.3C1475.34 589.629 1468.76 588.154 1460.59 593.947ZM1320.7 562.925C1362.84 511.888 1441.42 511.097 1484.56 562.082C1498.67 578.726 1494.88 575.724 1485.19 579.99C1468.65 587.258 1480.45 587.048 1462.28 569.509C1432.2 540.487 1385.96 537.643 1352.62 562.029C1320.18 585.836 1341.88 589.892 1319.23 579.937C1311.06 576.408 1307.11 579.305 1320.7 562.925ZM1375.37 635.346C1351.51 640.139 1355.2 643.668 1352.15 639.665C1307.43 581.991 1221.74 581.307 1175.86 636.558C1171.38 641.93 1174.12 641.614 1168.22 639.665C1150.58 633.819 1144.26 639.718 1162.9 618.913C1221.52 553.655 1326.65 560.765 1375.37 635.346ZM1262.87 568.139C1246.44 568.139 1252.39 571.826 1245.38 559.923C1235.85 543.753 1272.67 531.955 1284.62 555.604C1273.46 573.037 1282.73 568.139 1262.87 568.139ZM1300.16 535.484C1280.67 556.446 1295 550.969 1279.2 540.856C1273.04 536.906 1264.66 534.957 1256.34 536.748C1225.26 543.542 1250.97 561.134 1227.11 535.484C1219.05 526.793 1249.23 512.994 1268.14 514.89C1282.78 516.417 1305.8 529.427 1300.16 535.484ZM1322.02 516.364C1302.53 530.164 1309.8 531.112 1302.16 524.054C1280.83 504.303 1248.23 503.355 1225.84 521.947C1215.94 530.164 1224.84 530.269 1205.25 516.417C1198.14 511.413 1246.91 470.015 1298.16 495.612C1305.22 499.089 1326.13 513.468 1322.02 516.364ZM1346.62 502.407C1325.44 511.729 1330.39 514.047 1326.34 509.517C1297.42 477.336 1248.44 471.226 1212.47 497.614C1189.19 514.679 1207.51 514.205 1180.65 502.407C1174.86 499.879 1210.78 459.691 1262.82 459.691C1316.8 459.691 1349.57 501.09 1346.62 502.407ZM1424.15 489.661C1421.14 494.19 1426.1 490.556 1403.03 490.556C1378.59 490.556 1383.54 494.559 1380.32 489.661C1373.64 479.495 1393.7 456.479 1414.4 467.487C1421.35 471.173 1429.99 480.654 1424.15 489.661ZM1412.03 459.955C1407.77 458.585 1404.08 458.164 1398.97 458.849C1359.73 464.116 1392.44 495.138 1357.94 463.326C1377.64 428.827 1427.04 428.3 1447.48 462.378C1413.98 492.663 1446.11 470.647 1412.03 459.955ZM1460.59 451.896C1444.37 463.378 1459.75 457.901 1436.16 441.415C1416.3 427.51 1388.91 426.983 1368.11 442.732C1345.62 459.797 1361.68 464.484 1343.88 451.896C1336.66 446.787 1330.97 448.262 1348.04 431.829C1378.11 402.86 1425.31 402.123 1456.33 430.249C1475.34 447.577 1468.76 446.103 1460.59 451.896ZM1484.56 420.031C1498.67 436.727 1494.88 433.672 1485.19 437.939C1465.12 446.787 1484.08 442.521 1453.38 420.031C1418.72 394.591 1371.42 399.226 1342.09 429.09C1322.97 448.525 1340.72 445.523 1311.12 434.673C1349.14 370.521 1437.74 364.622 1484.56 420.031ZM1375.37 493.295C1351.25 498.141 1355.25 501.669 1352.15 497.614C1307.32 439.677 1221.47 439.519 1175.86 494.506C1171.38 499.879 1174.07 499.563 1168.22 497.614C1150.63 491.82 1144.26 497.614 1162.9 476.862C1221.52 411.604 1326.65 418.714 1375.37 493.295ZM1241.86 412.236C1250.02 398.331 1268.08 396.277 1279.3 406.547C1287.47 414.026 1283.68 413.552 1277.09 426.825C1239.54 423.033 1256.92 435.253 1241.86 412.236ZM1300.16 393.432C1280.67 414.395 1295 408.917 1279.2 398.805C1272.93 394.802 1264.61 392.906 1256.34 394.697C1225.26 401.491 1250.97 419.083 1227.11 393.432C1219.21 384.953 1247.6 372.575 1262.82 372.575C1283.83 372.575 1305.11 388.113 1300.16 393.432ZM1293.79 375.525C1275.99 364.253 1252.92 363.253 1233.8 374.419C1209.94 388.323 1230.69 391.484 1202.93 372.68C1235.17 335.495 1292.21 336.496 1323.44 373.365C1296.79 391.694 1315.49 389.272 1293.79 375.525ZM1318.49 359.724C1286.78 332.44 1240.59 332.44 1209.04 358.143C1190.29 373.365 1207.09 371.364 1178.33 359.302C1221.52 303.419 1305.11 303.999 1347.72 359.829C1320.54 371.522 1334.82 373.787 1318.49 359.724ZM1424.15 347.609C1421.2 352.139 1425.88 348.505 1403.03 348.505C1378.59 348.505 1383.54 352.508 1380.32 347.609C1373.9 337.813 1393.44 314.269 1414.4 325.435C1421.35 329.122 1429.99 338.603 1424.15 347.609ZM1431.78 337.075C1422.09 308.897 1382.06 309.898 1373.79 338.498C1358.05 318.22 1353.3 323.592 1365.84 310.74C1385.38 290.673 1417.25 289.567 1438.1 308.739C1452.96 322.433 1446.95 318.009 1431.78 337.075ZM1452.17 316.271C1429.2 279.56 1375.69 279.876 1353.3 317.166C1334.55 301.312 1332.97 307.633 1340.72 297.889C1371.74 258.544 1430.62 257.28 1463.28 295.361C1473.45 307.264 1470.71 300.891 1452.17 316.271ZM1484.56 277.98C1498.67 294.676 1494.88 291.621 1485.19 295.887C1465.12 304.736 1484.08 300.47 1453.38 277.98C1418.72 252.54 1371.42 257.175 1342.09 287.039C1322.97 306.474 1340.72 303.472 1311.12 292.622C1349.14 228.47 1437.74 222.623 1484.56 277.98ZM1372.48 346.977C1377.69 354.299 1377.11 348.61 1353.62 357.511C1308.64 296.572 1217.89 296.362 1172.49 357.037C1148.37 348.189 1147.52 354.72 1154.63 345.029C1208.99 271.238 1319.23 271.923 1372.48 346.977ZM1241.86 270.184C1250.02 256.28 1268.08 254.225 1279.3 264.496C1287.47 271.975 1283.68 271.501 1277.09 284.774C1239.54 280.982 1256.92 293.201 1241.86 270.184ZM1300.16 251.381C1280.67 272.344 1295 266.866 1279.2 256.754C1272.93 252.751 1264.61 250.855 1256.34 252.645C1225.26 259.44 1250.97 277.032 1227.11 251.381C1219.21 242.901 1247.6 230.524 1262.82 230.524C1283.46 230.524 1305.27 245.904 1300.16 251.381ZM1293.79 233.473C1275.93 222.149 1252.92 221.254 1233.8 232.367C1209.94 246.272 1230.64 249.38 1202.93 230.629C1235.17 193.444 1292.21 194.445 1323.44 231.314C1296.79 249.643 1315.49 247.22 1293.79 233.473ZM1318.49 217.672C1286.78 190.389 1240.59 190.389 1209.04 216.092C1190.29 231.314 1207.09 229.312 1178.33 217.251C1221.52 161.368 1305.11 161.947 1347.72 217.778C1320.54 229.47 1334.82 231.735 1318.49 217.672ZM1424.15 205.506C1421.14 210.035 1426.1 206.401 1403.03 206.401C1378.59 206.401 1383.54 210.404 1380.32 205.506C1373.64 195.34 1393.7 172.323 1414.4 183.332C1421.35 187.071 1429.99 196.552 1424.15 205.506ZM1431.78 195.024C1422.09 166.846 1382.06 167.794 1373.79 196.446C1358.05 176.168 1353.3 181.541 1365.84 168.689C1385.38 148.622 1417.25 147.516 1438.1 166.688C1452.96 180.382 1446.95 176.01 1431.78 195.024ZM1452.17 174.22C1429.26 137.614 1375.74 137.772 1353.3 175.115C1334.5 159.209 1332.97 165.634 1340.72 155.838C1371.69 116.598 1430.68 115.282 1463.28 153.31C1473.45 165.16 1470.71 158.84 1452.17 174.22ZM1483.82 135.138C1498.99 152.73 1494.72 149.675 1485.19 153.889C1468.65 161.157 1480.45 160.947 1462.28 143.408C1427.89 110.225 1374.48 112.016 1342.09 144.988C1322.97 164.423 1340.72 161.421 1311.12 150.571C1348.51 87.5246 1435.94 79.7294 1483.82 135.138ZM1372.48 204.926C1377.69 212.247 1377.11 206.559 1353.62 215.46C1308.48 154.468 1217.84 154.363 1172.49 214.986C1148.37 206.138 1147.52 212.669 1154.63 202.977C1208.88 129.345 1319.12 129.713 1372.48 204.926ZM1241.86 128.133C1251.7 111.279 1275.83 112.122 1284.57 129.45C1281.83 133.716 1279.36 138.141 1277.09 142.723C1239.8 138.931 1256.81 150.992 1241.86 128.133ZM1288.42 123.814C1276.67 105.801 1250.7 105.116 1238.12 122.708C1233.85 116.809 1229.16 111.279 1224.05 106.117C1245.07 82.3629 1281.99 82.7316 1302.48 106.96C1297.37 112.174 1292.68 117.81 1288.42 123.814ZM1306.8 102.641C1283.94 76.0425 1243.17 75.4632 1219.63 101.851C1214.41 97.0052 1208.83 92.5283 1202.88 88.5253C1235.01 51.4456 1291.94 52.025 1323.39 89.21C1317.54 93.2656 1312.01 97.7426 1306.8 102.641ZM1328.6 85.7865C1294.63 44.9672 1232.32 44.3878 1197.72 85.1545C1191.56 81.3622 1185.08 78.044 1178.33 75.1998C1221.37 19.5275 1304.8 19.4749 1347.72 75.7265C1341.09 78.6234 1334.66 81.9942 1328.6 85.7865ZM1353.62 73.409C1308.43 12.3644 1218.05 12.0484 1172.49 72.935C1165.43 70.3542 1158.06 68.3527 1150.53 66.9306C1203.77 -14.1813 1322.28 -14.234 1375.43 67.194C1367.89 68.616 1360.63 70.7228 1353.62 73.409Z" fill="#5E5E5E"/>
<path d="M19.3299 944.678C12.6935 944.098 6.26774 944.098 0 944.572V950.471C60.2546 945.784 121.405 993.766 115.98 1065.24C111.608 1122.81 73.8961 1130.29 95.4909 1130.29C155.271 1060.18 109.764 952.473 19.3299 944.678Z" fill="#5E5E5E"/>
<path d="M5.21434 971.908C3.42355 972.013 1.73811 972.224 0 972.382V979.44C41.5567 974.436 86.6423 997.98 88.7491 1054.13C91.6986 1132.03 9.37528 1130.29 53.7235 1130.29C129.726 1084.2 93.0154 967.431 5.21434 971.908Z" fill="#5E5E5E"/>
<path d="M0 1000.77V1006.14C1.94879 1005.83 4.00293 1005.56 6.10973 1005.46C76.793 1000.82 80.3219 1109.11 9.53328 1109.11C6.1624 1109.11 3.05486 1108.8 0 1108.32V1114.22C29.0212 1118.7 61.2553 1102.64 66.8383 1065.87C74.0541 1017.94 34.7096 996.084 0 1000.77Z" fill="#5E5E5E"/>
<path d="M18.5925 1028.16C12.1668 1026.16 5.74104 1026.42 0 1028.32V1034.9C16.1697 1029.42 38.6598 1038.11 33.3928 1062.34C29.8113 1078.72 12.9042 1084.99 0 1079.67V1086.1C14.9056 1090.89 33.1822 1084.15 38.6598 1065.82C43.7688 1048.81 33.7089 1032.9 18.5925 1028.16Z" fill="#5E5E5E"/>
<path d="M298.007 944.678C198.777 936.092 136.416 1053.02 202.253 1130.29H210.417C172.758 1090.2 172.178 1028.84 206.677 988.236C274.095 908.599 402.452 963.217 394.71 1065.29C390.338 1122.86 352.626 1130.34 374.221 1130.34C434.001 1060.13 388.389 952.473 298.007 944.678Z" fill="#5E5E5E"/>
<path d="M283.892 971.908C200.778 976.069 171.652 1086.41 244.02 1130.34C286.262 1130.34 216.843 1133.92 209.364 1065.87C197.618 958.688 363.318 945.468 367.479 1054.18C370.429 1132.08 288.105 1130.34 332.454 1130.34C408.193 1084.31 372.114 967.431 283.892 971.908Z" fill="#5E5E5E"/>
<path d="M345.516 1065.87C358.683 978.702 217.633 977.86 230.958 1065.87C240.808 1131.24 335.614 1131.34 345.516 1065.87ZM288.211 1109.06C221.794 1109.06 218.37 1009.73 284.787 1005.41C355.523 1000.77 359.052 1109.06 288.211 1109.06Z" fill="#5E5E5E"/>
<path d="M297.27 1028.16C274.516 1021.05 251.921 1041.91 259.084 1065.87C267.775 1094.89 308.594 1094.95 317.337 1065.87C322.446 1048.81 312.386 1032.9 297.27 1028.16ZM312.07 1062.34C306.803 1086.36 272.884 1088.57 265.089 1064.66C252.079 1024.74 320.919 1021.89 312.07 1062.34Z" fill="#5E5E5E"/>
<path d="M576.685 944.678C476.717 936.04 415.514 1053.49 480.93 1130.29H489.094C451.751 1090.57 450.54 1029.27 485.355 988.236C552.772 908.599 681.129 963.27 673.387 1065.29C669.015 1122.86 631.304 1130.34 652.898 1130.34C712.784 1060.03 666.909 952.42 576.685 944.678Z" fill="#5E5E5E"/>
<path d="M562.622 971.908C479.403 976.122 450.435 1086.47 522.751 1130.34C564.992 1130.34 495.573 1133.92 488.094 1065.87C476.348 958.688 642.048 945.415 646.209 1054.18C649.159 1132.08 566.835 1130.34 611.184 1130.34C686.765 1084.41 650.949 967.378 562.622 971.908Z" fill="#5E5E5E"/>
<path d="M624.193 1065.87C637.361 978.65 496.31 977.965 509.636 1065.87C519.538 1131.24 614.291 1131.34 624.193 1065.87ZM566.941 1109.06C500.682 1109.06 496.837 1009.73 563.517 1005.41C634.2 1000.77 637.729 1109.06 566.941 1109.06Z" fill="#5E5E5E"/>
<path d="M575.947 1028.16C553.194 1021.05 530.598 1041.91 537.762 1065.87C546.452 1094.89 587.271 1094.95 596.015 1065.87C601.124 1048.81 591.116 1032.9 575.947 1028.16ZM590.748 1062.34C585.533 1086.31 551.614 1088.68 543.766 1064.66C530.809 1024.68 599.596 1021.94 590.748 1062.34Z" fill="#5E5E5E"/>
<path d="M855.415 944.678C755.816 936.092 693.981 1053.23 759.661 1130.29H767.824C730.165 1090.21 729.586 1028.84 764.085 988.236C831.345 908.757 959.86 963.007 952.117 1065.29C947.745 1122.86 910.034 1130.34 931.628 1130.34C991.356 1060.18 945.849 952.473 855.415 944.678Z" fill="#5E5E5E"/>
<path d="M841.299 971.908C758.186 976.069 729.059 1086.41 801.428 1130.34C843.669 1130.34 774.25 1133.92 766.771 1065.87C755.026 958.688 920.726 945.468 924.887 1054.18C927.836 1132.08 845.513 1130.34 889.861 1130.34C965.601 1084.31 929.469 967.431 841.299 971.908Z" fill="#5E5E5E"/>
<path d="M902.87 1065.87C916.038 978.702 774.988 977.86 788.313 1065.87C798.215 1131.24 892.969 1131.34 902.87 1065.87ZM845.618 1109.06C779.201 1109.06 775.778 1009.73 842.195 1005.41C912.878 1000.77 916.407 1109.06 845.618 1109.06Z" fill="#5E5E5E"/>
<path d="M854.677 1028.16C831.924 1021.05 809.328 1041.91 816.492 1065.87C825.182 1094.89 866.001 1094.95 874.745 1065.87C879.801 1048.81 869.794 1032.9 854.677 1028.16ZM869.478 1062.34C864.211 1086.36 830.291 1088.57 822.496 1064.66C809.486 1024.74 878.274 1021.89 869.478 1062.34Z" fill="#5E5E5E"/>
<path d="M1134.09 944.678C1034.6 936.092 972.606 1053.18 1038.34 1130.29H1046.5C1008.84 1090.21 1008.26 1028.84 1042.76 988.236C1110.18 908.599 1238.54 963.27 1230.79 1065.29C1226.26 1123.49 1188.45 1130.34 1210.31 1130.34C1270.19 1060.03 1224.26 952.42 1134.09 944.678Z" fill="#5E5E5E"/>
<path d="M1119.98 971.908C1036.76 976.122 1007.79 1086.47 1080.11 1130.34C1122.35 1130.34 1052.93 1133.92 1045.45 1065.87C1033.76 959.004 1199.4 945.257 1203.56 1054.18C1206.46 1132.08 1124.19 1130.34 1168.54 1130.34C1243.86 1084.57 1208.57 967.378 1119.98 971.908Z" fill="#5E5E5E"/>
<path d="M1181.6 1065.87C1194.77 978.492 1053.77 978.176 1067.04 1065.87C1076.89 1131.24 1171.7 1131.34 1181.6 1065.87ZM1124.3 1109.06C1058.04 1109.06 1054.19 1009.73 1120.87 1005.41C1191.45 1000.77 1195.19 1109.06 1124.3 1109.06Z" fill="#5E5E5E"/>
<path d="M1133.35 1028.16C1110.6 1021 1088.01 1041.96 1095.17 1065.87C1103.86 1094.89 1144.68 1094.95 1153.42 1065.87C1158.53 1048.81 1148.47 1032.9 1133.35 1028.16ZM1148.16 1062.34C1142.94 1086.31 1109.02 1088.68 1101.17 1064.66C1088.16 1024.74 1157 1021.84 1148.16 1062.34Z" fill="#5E5E5E"/>
<path d="M1512 1028.21C1500.25 985.023 1463.49 949.049 1412.77 944.73C1313.17 936.092 1251.39 1053.28 1317.02 1130.34H1325.18C1287.78 1090.57 1286.73 1029.32 1321.44 988.288C1388.86 908.651 1517.16 963.27 1509.47 1065.34C1505.21 1122.91 1467.34 1130.39 1488.98 1130.39C1500.31 1117.12 1507.84 1102.48 1512 1087.47V1028.21Z" fill="#5E5E5E"/>
<path d="M1398.71 971.908C1315.59 976.069 1286.47 1086.41 1358.84 1130.34C1401.08 1130.34 1331.66 1133.97 1324.18 1065.87C1312.43 958.688 1478.13 945.415 1482.29 1054.18C1485.19 1132.08 1402.92 1130.34 1447.27 1130.34C1522.85 1084.41 1487.03 967.431 1398.71 971.908Z" fill="#5E5E5E"/>
<path d="M1460.28 1065.87C1473.5 978.439 1332.5 978.386 1345.72 1065.87C1355.62 1131.24 1450.38 1131.34 1460.28 1065.87ZM1403.03 1109.06C1336.77 1109.06 1332.97 1009.73 1399.6 1005.41C1470.29 1000.77 1473.81 1109.06 1403.03 1109.06Z" fill="#5E5E5E"/>
<path d="M1412.03 1028.16C1389.12 1021 1366.74 1042.06 1373.85 1065.87C1382.54 1094.89 1423.36 1094.95 1432.1 1065.87C1437.21 1048.81 1427.2 1032.9 1412.03 1028.16ZM1426.83 1062.34C1421.57 1086.47 1387.59 1088.52 1379.85 1064.66C1366.84 1024.74 1435.63 1021.94 1426.83 1062.34Z" fill="#5E5E5E"/>
</svg>
