<?xml version="1.0" encoding="UTF-8"?><svg id="Ebene_2" xmlns="http://www.w3.org/2000/svg" viewBox="0 0 230.39 230.39"><defs><style>.cls-1{fill:#fff;}.cls-2{fill:none;stroke:#eae7b1;stroke-miterlimit:10;stroke-width:10px;}.cls-3{fill:#eae7b1;}.cls-4{fill:#3c6255;}</style></defs><g><path class="cls-3" d="m112.73,225.27c-29.25-.38-56.31-11.87-77.98-34.97C13.67,167.85,3.81,140.77,5.14,110.02c1.24-28.79,12.4-53.61,32.98-73.7C60.44,14.54,87.64,3.96,118.84,4.93c29.32.91,54.65,12.05,75.09,33.04,22.13,22.73,32.75,50.4,31.34,82.15-1.33,29.77-13.11,55.17-34.89,75.49-21.05,19.64-46.27,29.45-77.65,29.66Z"/><path class="cls-1" d="m113.28,219.62c-27.53-.23-52.64-10.9-72.97-31.81-21.18-21.79-31.2-48.34-29.49-78.75,1.62-28.69,13.58-52.86,34.99-71.96,21.01-18.75,45.9-27.8,74.07-26.51,29.17,1.34,53.73,13.3,73.2,34.97,19.14,21.3,28.08,46.63,26.55,75.23-1.45,27.07-12.17,50.36-31.62,69.17-20.2,19.53-44.59,29.56-74.72,29.67Z"/><path class="cls-4" d="m191.85,186.04c-22.03-7.99-48.06-11.97-75.2-11.97s-53.88,5.31-76.34,13.73c0,0,11.11,11.04,14.1,12.32,2.61,1.61,16.25,10.74,16.25,10.74,0,0,17.47,7.53,38.29,8.63,18.25.96,39.23-3.5,52.68-9.57,0,0,14.35-7.62,18.59-10.89s11.63-13,11.63-13Z"/><path class="cls-4" d="m81.43,106.78c-.32-.83-.83-1.51.46-2.24.84-.48,1.35-1.59,1.07-2.93-.31-1.45.2-2.88,1.26-4.04.23-.25.5-.81.38-.99-.29-.44-.65-.03-.98.15-.99.55-1.93.81-3.05.16-.47-.27-1.4-.28-1.63.45-.17.55.63.72,1.01.84,1.28.4,1.17,1.4,1,2.29-.14.78-.35,1.75-1.58,1.55-.9-.15-1.07.34-1.32,1.13-.79,2.44-1.18,2.63-3.87,2.64-1.49,0-2.99.06-4.48-.01-1.65-.08-3.11-.43-3.99-2.18-.54-1.07-1.25-2.17-2.31-2.88-.54-.37-.88-1.69-1.81-.69-.73.78-1.38,1.85-.59,2.92.5.68,1.05,1.32,1.5,2.04,1.15,1.82.78,2.88-1.3,3.12-1.14.13-1.02.78-.95,1.45.12,1.15-.33,1.41-1.45,1.48-1.44.08-2.53-.62-3.68-1.2-.9-.45-1.5-1.67-2.8-.8-.28.19-.62-.16-.55-.5.15-.74-.62-1.37-.39-1.97.43-1.13-.23-1.3-.97-1.2-1.14.14-2.1-.46-3.18-.54-.69-.05-1.39-.35-1.82-.91-.51-.68-1-1.49-.69-2.36.33-.91,1.22-.41,1.84-.45,2.17-.12,4.36-.11,6.44.62.5.18.78.24,1.24-.03.4-.23.99-.33,1.06-.78.03-.2-.62-.51-.96-.76-1.72-1.28-3.45-2.55-5.18-3.83-.95-.7-1.12-1.81-1.41-2.83-.22-.75.39-.86.93-.9,1.83-.14,3.6-.08,4.87,1.56.24.31.55.56.83.84.22.22.51.54.78.35.48-.33-.13-.62-.17-.95-.1-.99-1.99-1.99,0-2.96,1.61-.78,3.47-.15,4.34,1.38.04.07.09.13.14.19.46.59.48,1.46,1.19,1.89.26-.76-.02-1.41-.36-2.09-.26-.53-.09-1.1.45-1.43.57-.35,1.26-.39,1.77.01,2.03,1.62,4.76,2.22,6.38,4.44.5.68,1.11,1.17,1.81.16.66-.94,1.58-1.19,2.67-1.07.28.03.73-.03.85-.21.26-.39-.13-.68-.37-.99-1.96-2.45-3.61-5.1-4.82-8.02-.26-.62-.54-1.13-.01-1.7.52-.55,1.03-.34,1.69-.11,2.2.77,3.86,2.15,5.08,4.11.2.32.33.69.52,1.02,1.49,2.49,1.47,2.46,3.7.51.78-.68,1.55-1.61,2.84-1,.64.3.74-.29.92-.66,1.35-2.76,2.95-2.94,4.72-.38.58.84,1.13.58,1.66.3,1.35-.72,2.66-1.5,3.93-2.39,1.23-.86,2.41-1.9,4.1-1.91,1.69,0,1.87-1.75,2.73-2.69,1.43-1.57,2.17-1.93,4.06-.97,1.84.94,3.78,1.65,5.39,3.07.92.81,2.22,1.42,3.64,1.21.1-.01.2-.02.3-.03.31,0,.6.07.87.22.07.07.14.14.21.21.89,1.68,2.42,2.67,3.95,3.66.41.27.86.06.76-.44-.68-3.44,2.3-5.24,3.61-7.73.96-1.84,2.87-3.23,4.28-4.89,1.1-1.3,2.88-1.32,3.88-.29,1.33,1.36,1.4,2.97.07,4.27-2.03,1.98-3.91,4.18-6.79,5.06-.67.2-1,.91-.68,1.54.26.52.39.99.4,1.55,0,.36-.16.83.32,1.01.46.17.69-.26.97-.51,2.79-2.47,5.77-4.72,8.38-7.41,1.66-1.71,2.33-1.79,3.49-.77,1.66,1.45,2.09,2.97.76,4.41-1.45,1.57-.77,1.37.72,1.63,1.38.24,2.51,1.29,3.37,2.55.47.69.5,1.31.18,1.95-.4.79-1.23.71-1.88.51-1.93-.61-3.96-.47-5.9-.91-1.39-.71-2.65-.57-3.88.45-.98.82-2.19,1.26-3.48,1.09-1.99-.25-2.63.85-2.73,2.56-.02.36-.24.82.23,1,.31.12.55-.21.8-.39,1.95-1.42,3.55-3.28,5.64-4.53,1.06-.64,2.09-1.06,3.05.15,1.27,1.86,3.22,3.32,3.21,5.93,0,.99-.51,1.42-1.2,1.69-2.36.94-4.48,2.29-6.51,3.78-2.08,1.53-4.65.51-5.07-2.05-.07-.41.18-1.11-.52-1.06-.65.05-.39.73-.41,1.14-.04.63.08,1.27-.03,1.88-.2,1.12.77,1.67,1.2,2.43.86,1.49,1.59-.15,2.22-.45,1.12-.53,1.33-.32,1.33.81,0,1.49-.35,2.88-.89,4.24-.13.33-.38.89-.27.98.55.46.75-.22,1.08-.46.32-.23.57-.57.91-.72.83-.37,1.68-.82,2.56-.92,1.1-.12,1.49.87,1.95,1.7.4.73.89.46,1.15-.14.15-.34.06-.77.1-1.16.18-2.15,1.02-2.67,3.03-1.95.44.16,1.01.88,1.34-.47.33-1.35,1.82-1.44,3.17-.68,1,.56,1.81,1.46,2.98,1.68.36.07.76.1,1.1-.16-.25-.17-.5-.33-.73-.51-1.87-1.44-3.43-3.26-4.87-5.04-1.56-1.93-.89-4.65-.73-7.02.08-1.12,4.18-2.7,5.47-2.33,2.12.59,2.15.6,2.44-1.47.23-1.62,1.12-3,1.61-4.53.62-1.91,1.66-2.39,3.12-1.81,1.71.68,2.34,1.99,1.81,3.75-.38,1.24,0,1.74,1.23,1.7.78-.03,1.69-.2,2.32.13.92.48,1.79,1.18,1.75,2.53-.05,1.39-.76,2.22-2,2.32-2.16.16-4.24.71-6.35,1.11-1.39.27-2.77.04-3.89-1.06-.58-.56-.98-.33-.99.48,0,.71-.09,1.43.02,2.12.11.76-.54,1.81.56,2.22,1.13.43,2.28.91,3.54.11.54-.34,1.01-.73,1.43-1.17,1.05-1.07,2.14-1.2,3.28-.2.83.73,1.49.78,2.29-.11.86-.97,1.93-1.13,3.01-.24.23.19.49.46.78.25.13-.1.21-.51.12-.64-.95-1.42-.18-2.5.69-3.54,1.52-1.84,2.62-3.96,3.98-5.9,1.08-1.54,1.56-1.54,2.77-.23.77.83,1.16,1.93,2.31,2.51.56.28.79,1.27,1.08,1.98.2.47,1.55,1.26,2.1,1.12,2.73-.71,4.11.16,4.12,2.47,0,1.01-.33,1.66-1.3,1.9-3.39.83-6.28,2.8-9.38,4.26-1.25.59-2.07.1-3.01-.41-.46-.25-.51-.74-.46-1.24.05-.5,1.1-.91.54-1.2-.83-.43-1.98.05-2.9-.52-.06.13-.2.27-.18.38.19,1.15.32,2.27-.11,3.44-.15.41.39.81.91.79.85-.02,1.76.24,2.55-.16.88-.45,1.63-.47,2.32.28.29.31.69.5,1.06.36,1.73-.66,2.42.52,2.76,1.76.39,1.42.05,2.74-1.47,3.5-.91.46-1.43,1.14-.65,2.16.45.6.97.89,1.5.15,1.38-1.94,3.18-1.62,4.98-.91,1.55.61,3.21,1.02,4.48,2.27.81.79.87,1.69.61,2.57-.28.96-1.23.83-2.01.77-1.3-.11-2.58.12-3.93-.35-1.34-.46-2.87-.39-3.72,1.34-.5,1.01-1.35,1.76-2.34,2.44-2.03,1.4-3.91,1-4.32-1.47-.31-1.9-.86-1.17-1.71-.6-2.36,1.59-5.14,1.85-7.81,2.41-.52.11-1.08-.12-1.55.35-.31.32-.44.68-.33,1.06.22.73.56.01.84.03,1.56.07,2.34,1.28,1.77,2.77-.86,2.27-3.62,3.66-6.19,2.69-1.83-.69-3.62-.71-5.47-.8l.05.04c-.07-.61-.71-.48-1.04-.79-1.78-1.67-1.74-2.56.24-3.96.77-.55,1.57-1,.48-2.08-.37-.37-.29-1.17.16-1.74,1.97-2.54,4.24-4.79,6.56-6.99.89-.84,2.73-.6,3.59.32.62.66.6,2.92-.13,3.7-1.18,1.26-2.43,2.45-3.65,3.69-.16.16-.39.43-.34.56.13.34.51.22.78.2,1.35-.08,2.43-.94,3.58-1.48,2.55-1.21,5.45-1.63,7.69-3.48.22-.18.75-.11.66-.5-.07-.34-.5-.19-.77-.18-1.58.03-3.04-.44-4.42-1.11-.58-.28-1.25-.78-1.11-1.64.12-.77.94-.67,1.4-1.01.05-.04.15-.01.23-.02.87-.11,1.97-.54,2.2-1.06.44-1-1.13-.77-1.5-1.52-1.28-2.54-3.88-1.62-5.84-1.82-1.29-.13-2.75,1.19-4.11,1.89-.28.14-.51.51-.36.79,1.09,2.05-.5,3.17-1.73,3.99-2.28,1.52-3.7,3.68-5.2,5.82-2.4,3.41-5.09,6.59-7.85,9.71-3.8,4.29-6.66,9.19-8.83,14.47-1.83,4.45-3.44,9.03-4.08,13.78-.46,3.44-.85,6.95-.69,10.48.15,3.47-.13,6.91,1.25,10.3.63,1.56.49,3.64.11,5.35-.55,2.5-.32,4.98-.38,7.46-.07,3.03-2.43,4.95-5.42,4.2-.61-.15-1.05-.33-1.74-.12-1.77.54-3.12-.56-3.24-2.45-.1-1.51.37-2.85.86-4.27.88-2.54.59-5.24.56-7.88-.07-5.87.72-11.71.52-17.59-.15-4.58-1.01-9.03-1.77-13.51-.58-3.41-.97-6.85-1.58-10.25-1.08-5.93-1.59-12.02-4.7-17.4-.92-1.59-1.94-3.12-2.81-4.74-.6-1.11-1.3-1.22-1.87-.2-1.6,2.84-4.05,4.77-6.63,6.61-.16.11-.2.39-.3.59.23.03.47.1.7.09,1.33-.05,1.55.78,1.49,1.84-.25,4.29-1.9,7.99-4.75,11.18-.59.67-1.22.94-2.03.31-.82-.63-1.62-.43-2.52-.03-2,.89-3.88.24-4.69-1.66-.36-.85-.35-1.77.43-2.6,1.11-1.18,2.55-1.91,3.96-2.3,2.96-.82,4.6-2.88,6.04-5.3.16-.27.41-.57.08-.79-.23-.15-.66-.24-.88-.13-2.27,1.18-5.2,1.17-6.7,3.71-.54.92-1.6,1.25-2.36,1.25-2.61.02-4.97.94-7.41,1.59-2.68.72-5.42.5-8.14.44-1.36-.03-2.41.25-3.27,1.36-.88,1.13-2.03,1.82-3.47,2.15-1.43.33-3.64-.32-4.52-1.47-.64-.84-.42-1.61.43-1.91,2.96-1.03,4.86-3.45,7.22-5.26.79-.61.84-1.01-.11-1.48-.41-.2-.96-.56-1.02-.92-.62-3.41-1.63-.49-2.21-.07-2.86,2.06-5.52,4.47-9.39,4.36-1.36-.04-2.31-.66-2.93-1.79-.53-.97-.62-1.55.81-2.18,2.51-1.1,5.11-2.13,7.32-3.82.22-.17.72-.11.65-.5-.07-.41-.5-.19-.75-.2-1.81-.02-3.62.04-5.42-.04-.67-.03-1.72.58-1.96-.59-.25-1.18-.19-2.45,1.13-3.03,1.62-.72,3.36-1.21,5.14-1.03,1.67.16,3.31.58,4.95.94.44.09.98.25,1.24.57,2.64,3.32,5.42.55,8.13.19.42-.06.59-.57.11-1.07-.69-.72-1.42-1.37-1.97-2.27-.78-1.29-.1-1.8.81-2.01,2.69-.61,5.41-1.06,8.13-1.55,1.76-.32,3.51-.65,5.31-.48.18.14.38.26.53.44.39.47.33.98.08,1.49.02,0,.15,0,.18-.07.24-.83.09-1.5-.83-1.8Z"/><path class="cls-4" d="m93.26,50.6c2.83-1.43,4.26.23,5.52,2.46.39.68-.01,1.2-.32,1.72-1.07,1.79-2.04,3.66-3.73,4.97-.95.74-1.48,1.73-1.85,2.85-.57,1.69-1.33,1.82-2.72.73-.4-.31-.72-1.38-.99-.95-.33.54-.59,1.75.27,2.3,1.25.8,2.16,2.53,4.17,1.51.97-.49,1.69.5,2.5.89,1.02.5,2.23,1.45,3.09,1.22.68-.18.12-1.91.19-2.95.08-1.02-.01-2.04.02-3.06.05-1.4,1.42-2.1,2.6-1.27.55.39,1.39.46,1.61,1.25.17.58.47,1.09,1.1.96.56-.11.33-.79.45-1.2.34-1.17.45-2.41.86-3.55,1.11-3.08.09-6.23.47-9.31.08-.62-.49-1.6.5-1.8.86-.17,1.79-.3,2.65.44,2.31,1.99,2.81,4.35.94,7.69-.97,1.74-.48,3.01.32,4.42.1.17.22.65.8.16.85-.71,1.71-2.2,3.2-.83,1.47,1.35,1.95,3.3,1.2,5.07-.09.21-.21.41-.27.63-.15.55-1.3.83-.65,1.49.46.47,1.39.36,2.01.02.57-.31,1.37-.39,1.56-1.25.14-.65.76-.98,1.19-1.42,2.39-2.46,3.05-3.32,5.88-.22.76.83,1.98,1.19,2.33,2.44.35,1.24.97.49,1.25.03.85-1.44,2.08-2.41,3.39-3.41,1.3-1,2.19-.88,3.19.26.51.58,1.15,1.06,1.37,1.84.28.96.17,1.78,1.91,1.72,1.34-.04,2.07,2.1,2.55,3.57.43,1.31-.73,1.99-1.57,2.62-1.22.92-2.56,1.66-3.83,2.51-1.14.76-2.1.62-3.12-.29-1.1-.98-.99-1.95-.4-3.1.37-.71,1.2-1.02,1.42-1.82.07-.26.32-.62.23-.75-.24-.34-.53-.07-.77.13-.48.39-.84.87-1.45,1.16-1.25.6-2.38.77-3.34-.43-1.3-1.63-3.51-.87-5.02-1.93-.08-.05-.37.04-.42.13-1.3,2.51-4.26,1.84-6.2,3.22-1.5,1.06-3.26.22-4.84-.42-1.06-.43-2.13-.85-3.16-1.33-.46-.21-.87-.34-1.32-.09-1.77,1-2.53-.38-3.39-1.46-.17-.22-.16-.58-.24-.87-.2.3-.48.57-.59.89-.26.79-.23,1.73-1.44,1.78-.83.03-.26.42-.12.71.68,1.44,2.18,2.35,2.45,4.12.12.77.69,1.54-.2,2.01-.83.43-1.78.45-2.59-.32-1.12-1.07-2.12-2.24-3.47-3.1-1.04-.66-1.01-.22-.91.52.16,1.18-.67,1.48-1.48,1.67-2.99.71-6.74-1.54-7.61-4.46-.1-.35-.58-.72-.2-1.02,1.05-.83.09-1.07-.35-1.51-.61-.62-1.61-.96-2.1-.52-1.06.94-1,2.95.03,3.56.83.49,1.45,1.16,2.15,1.76.7.61.76,1.35.39,2.11-.4.8-1.22.68-1.88.56-.97-.17-1.9-.56-2.86-.81-1.57-.41-3.04-1.09-4.82-.63-1.4.36-3.27-1.37-3.45-2.78-.09-.74.4-1.02.92-1.44,1.59-1.29,3.62-1.63,5.35-2.62,1.12-.64,1.35-.86.59-2.18-1.44-2.48-3.6-4.54-4.18-7.59-.25-1.33-.29-2.61-.3-3.9-.01-1.6.73-2.01,1.99-1.07,1.98,1.47,3.85,3.1,5.76,4.66.72.59,1.18,1.57,2.1,1.82.48.13.38,1.02.85.64.29-.23.3-1.04-.02-1.31-1.47-1.24-1.91-3.26-3.66-4.36-1.62-1.02-2.44-2.95-3.58-4.49-.69-.93-.11-1.68,1.1-1.76,2.11-.14,3.36,1.24,4.32,2.72,1.1,1.7,2.66,2.76,4.23,3.87.68.48,1.21.41,1.53-.51.42-1.23.83-2.45.95-3.76l-.05.05Z"/><path class="cls-4" d="m131.28,56.26c-.14,0-.87.15-1.37-.12-1.28-.68-2.37-.3-3.52.27-2.08,1.03-3.1.6-3.9-1.61-.13-.36-.4-.69-.43-1.05-.07-.8-.33-.72-.78-.27-.83.83-1.63,1.7-2.51,2.48-1.01.9-2.07.83-3.02-.12-.84-.83-1.61-1.7-.77-2.97.55-.83.81-1.82,1.46-2.6,1.39-1.66,2.04-3.51,1.87-5.76-.15-2.05,1.34-3.69,2.03-5.53.4-1.06,1.56-.94,2.36-.19,1.72,1.63,1.75,4.49,0,6.15-.92.86-1.23,1.48-.04,2.26,1.15.76.75,1.94.8,2.99.03.63.15.91.74.37.4-.36.76-.72,1.28-.98,1.26-.61,2.34-.68,3.33.46.91,1.05,2.03,1.55,3.48,1.52,2.42-.04,2.47.06,2.49,1.99.03,2.14-.45,2.65-2.55,2.7-.16,0-.31,0-.96,0Z"/><path class="cls-4" d="m166.61,119.9c3.08.29,6.08.87,8.37,3.23,1,1.03,2.23.4,3.34.59.58.1,1.37-.34,1.69.38.38.87-.03,1.89-.64,2.34-3.26,2.42-6.79,4.25-11.04,3.87-1.84-.16-2.92-2.41-2.1-4.27.12-.27.32-.49.48-.74-.38-.05-.8-.23-1.13-.13-.73.23-1.4.61-2.1.92-2,.9-4.38-.44-4.61-2.6-.08-.77.16-1.29.93-1.68,2.15-1.09,4.31-2.07,6.82-1.91Z"/><path class="cls-4" d="m145.12,125.1c.42.81,1.33.69,1.98.9,1.11.36,1.82.85,1.83,2.05.01.98.55.95,1.25.74,2.26-.67,4.54-1.3,6.78-2.02.8-.26,1.56-.45,2.11.3.44.6.16,1.25-.05,1.97-.99,3.39-6.46,5.71-9.13,5.53-1.85-.12-3.09-1.37-3.27-3.53-.09-1.09-.43-.82-1.19-.76-1.72.14-3.45,0-5.18.07-1.36.05-1.92-.81-2.36-1.85-.44-1.04-.63-2.16.18-3.05.76-.84,1.6-1.52,3.01-.97,1.26.49,2.65.84,4.07.67l-.05-.04Z"/><path class="cls-4" d="m143.72,78.86c-.52-.05-.88.21-1.22.57-.53.57-1.02,1.21-1.98.71-.88-.46-1.41-1.1-1.49-2.1-.12-1.53.11-2.9,1.32-4.02,1.31-1.21,2.68-2.32,4.27-3.12,2.27-1.13,4.27.01,4.28,2.51,0,1.25.21,1.92,1.64,1.73,1.68-.22,1.72,1.38,2.05,2.29.26.73.53,1.75-.63,2.61-1.74,1.28-3.72,2.11-5.48,3.35-.81.57-2.03.42-2.97.09-1.66-.57-1.82-1.79-.55-3.1.38-.39.75-.79,1.13-1.19-.09-.15.09-.6-.37-.34Z"/><path class="cls-4" d="m155.09,74.2c0-.18-.1-.83.03-1.43.11-.49.43-.98.78-1.37.67-.75,1.98,1.18,2.51-.59.34-1.15,1.56-1.48,2.42-2.07,2.01-1.37,4.15-2.57,6.51-3.3,2.3-.71,4.74,1.58,4.24,3.93-.16.75-.72.96-1.29,1.18-2.35.89-4.68,1.86-7.08,2.58-1.07.32-2.31.35-3.38-.34-.23-.15-.62-.37-.76-.29-.32.19-.03.49.04.78.32,1.42.5,2.9.85,4.27.26,1,.09,1.49-.56,1.93-.82.57-1.75.6-2.57-.05-1.56-1.23-1.81-2.96-1.73-5.24Z"/><path class="cls-4" d="m103.17,123.6c-.08,3.25-.59,6.41-2.39,9.19-.62.96-1.32,1.84-2.76,1.82-2.55-.03-3.03-.41-2.37-2.81.99-3.61,2.12-7.17,2.44-10.96.08-.99.3-2.57,2.22-2.35,1.45.17,2.61.95,2.83,2.51.12.85.02,1.72.02,2.59Z"/><path class="cls-4" d="m156.49,52.99c-.67,1.49-.15,3.57-.87,5.49-.25.66-.23,1.63-1.1,1.45-.71-.15-1.7-.39-1.8-1.53-.12-1.3-.67-2.54-.48-3.89.04-.29-.09-.6-.14-.9-.32.19-.36.5-.31.81.16,1-.3,1.8-1.11,2.12-.85.33-1.54-.36-2.16-.95-.95-.89-1.56-1.9-1.46-3.27.05-.62-.04-1.26.02-1.88.09-.94-.5-2.29.87-2.59,1.26-.28,1.82.93,2.42,1.82.13.19.25.39.33.6.3.83.3,1.78.99,2.46.03-.93.07-1.87.09-2.8.01-.39-.02-.79,0-1.18.08-1.17.36-1.73,1.74-1.05,2.44,1.2,2.99,1.92,2.97,5.29Z"/><path class="cls-4" d="m104.7,44.16c.52,1.03-1.31,1.56-1.24,2.59.07,1.09,1.27,1.94,1.13,3.18-.24,2.15-1.27,4.06-2.03,6.03-.29.77-1.41.73-2.1.11-.77-.7-1.14-1.62-1.05-2.7.23-2.62-.48-5.28.42-7.86-1.11-1.59.51-2.47.94-3.66.28-.79.75-1.57,1.53-1.53,1.04.04,1.72.86,2.14,1.84.23.54.09,1.08.27,2Z"/><path class="cls-4" d="m164.04,63.42c.21.88-.25,1.59-1.03,2.07-2.2,1.36-4.45,2.65-6.65,4.01-1.26.78-2.29.53-3.17-.57-.96-1.2-.86-2.27.31-3.34,1.88-1.73,3.49-3.78,5.75-5.07,2.38-1.35,4.78.06,4.79,2.9Z"/><path class="cls-4" d="m146.1,53.04c.21,1.02-.18,1.93-1.1,2.72-1.47,1.26-2.81,2.66-4.3,3.91-1.17.98-2.29.87-3.47.79-1.01-.07-1.62-1.5-1.13-2.46.63-1.23,1.43-2.38,2.43-3.32,1.09-1.02,2.03-2.22,2.71-3.45.88-1.6,2.13-1.89,3.47-1.49,1.37.41,1.44,1.85,1.38,3.3Z"/><path class="cls-4" d="m163.52,82.18c-1.01.23-1.66-.31-2.15-1.06-.51-.78.19-1.23.56-1.81,1.57-2.47,3.86-4.25,5.91-6.26,1.66-1.63,4.46-.14,5.09,1.88.4,1.3-.72,2.15-1.39,2.71-1.79,1.51-3.85,2.72-5.84,3.98-.63.4-1.35.77-2.17.56Z"/><path class="cls-4" d="m114.03,84.13c.04-1.19.35-2.21,1.02-3.29,1.18-1.89,1.45-4.17,1.75-6.35.18-1.31.17-2.31,1.9-2.21,1.78.09,2.72.7,2.85,2.31.22,2.67-.38,5.06-1.73,7.5-1.11,2.02-2.43,2.57-4.42,2.45l.06.04c-.4-.45-1.07-.07-1.48-.49l.04.04Z"/><path class="cls-4" d="m136.67,44.71c0,.55.01,1.1,0,1.65-.01.37-.14.63-.43.95-.96,1.06-2.48-.93-3.08.53-.61,1.48-1.69,1.32-2.85,1.35-1.23.03-1.66-.52-1.66-1.7-.01-1.81,1.09-3.36,1.11-5.17,0-.59.78-.78,1.26-.89,1.04-.24,1.6-.65,1.46-1.85-.13-1.03.75-.84,1.31-.75,1.51.22,2.69,1.98,2.9,4.22.05.55,0,1.1,0,1.65Z"/><path class="cls-4" d="m88.3,78.43c.55,0,1.11-.07,1.64.01,1.36.23,2.65.58,2.39,2.42-.15,1.04.63,1.87.51,2.94-.18,1.55-.86,2.09-2.31,1.52-.42-.16-.91-.37-1.16-.71-1.03-1.44-2.27-1.14-3.46-.4-.76.47-1.51.35-2.26.31-1.33-.07-1.69-1.27-2.1-2.21-.39-.89.44-1.42,1.05-1.88,2.1-1.57,3.42-2.02,5.7-2.01Z"/><path class="cls-4" d="m178.06,107.78c-.83-.71-2.01-.37-2.97-.96-.99-.61-1.58-2.38-1.13-3.84.38-1.23,1.99-1.51,2.39-1.29,2.07,1.18,4.38.52,6.5,1.18,1.56.49,1.14,1.34.65,2.01-1.29,1.78-3.36,2.26-5.45,2.89Z"/><path class="cls-4" d="m81.08,84.51c-.03.77,0,1.55-.82,1.85-.9.34-1.67.01-2.24-.77-1.31-1.78-2.63-3.55-3.92-5.35-.26-.37-.53-.8-.58-1.23-.09-.74-.38-1.61.38-2.17.69-.51,1.37-.32,2.14.1,3.01,1.68,4.04,4.6,5.04,7.57Z"/><path class="cls-4" d="m72.48,80.47c-.1,1.23-1.29,1.85-2.48,1.38-2.14-.84-2.69-2.9-3.48-4.67-.51-1.15-.52-2.52-1-3.74-.31-.79.16-1.6.77-2.01.6-.4,1.1.27,1.58.67,1.11.93,1.81,2.15,2.23,3.46.45,1.41,1.16,2.65,1.85,3.92.18.33.59.52.53.98Z"/><path class="cls-4" d="m115.43,40.89c.26,1.33-.44,2.1-1.7,2.81-1.11.62-2.33.7-3.46,1.17-.72.3-1.51.08-1.92-.84-.36-.81-.75-1.49.1-2.28,1.19-1.11,2.4-2.21,3.23-3.65.39-.68,1.15-.92,1.84-.66.88.33,1.59,1,1.88,1.93.13.43.02.93.02,1.53Z"/><path class="cls-4" d="m149.85,61.45c0,1.59-3.72,4.25-5.27,3.78-1.33-.4-1.94-1.46-1.57-2.78.37-1.34,1.11-2.52,1.65-3.78.57-1.33,1.6-1.07,2.56-.89.76.14,2.63,2.93,2.63,3.68Z"/><path class="cls-4" d="m77.22,66.32c.05.65.03,1.31-.66,1.6-.57.23-1.23.34-1.73-.17-1.7-1.74-3.69-3.24-4.44-5.76-.21-.71-.26-1.38-.21-2.05.11-1.29,1.47-1.96,2.31-1.01,1.86,2.09,3.91,4.11,4.73,6.93.04.14,0,.31,0,.46Z"/><path class="cls-4" d="m111.7,79.68c-.05,1.49-.68,1.98-2.01,1.53-1.75-.59-4.27-4.43-4.15-6.35.03-.51-.17-1.15.72-1.17.72-.01,1.48-1.02,2.12-.15,1.39,1.88,3.29,3.52,3.31,6.13Z"/><path class="cls-4" d="m93.31,50.55c-.64.12-.83.96-1.53.97-1,.01-2.08.57-2.94-.42-.84-.97-.45-1.95-.01-2.92.48-1.05.97-2.09,1.91-2.85.93-.75,1.61-.48,2.04.48.57,1.29,1.36,2.59.51,4.09-.1.18-.02.46-.03.7l.05-.05Z"/><path class="cls-1" d="m121.08,133.4c.75-5.18.6-10.45,1.85-15.58.33-1.35.59-1.78,1.83-1.04.97.57,1.85.34,2.84-.08,2.28-.96,4.17-2.55,6.31-3.74.79-.44,1.05-.38,1.34.32.55,1.34,1.01,2.71,1.74,3.98.61,1.05-.38,1.53-.92,2.13-3.76,4.19-7.73,8.22-10.67,13.07-1.15,1.89-2.05,3.93-3.12,5.88-.13.23-.11.74-.5.66-.37-.07-.22-.51-.18-.75.31-1.67-.69-3.19-.51-4.84Z"/><path class="cls-1" d="m117.35,118.37c-1.17,4.12-.62,8.43-1.37,12.62-.34,1.9-.06,3.91-.08,5.87,0,.28.06.76-.21.74-.3-.02-.2-.51-.26-.8-1.16-6.13-1.74-12.46-4.86-18.02-1.68-2.98-3.95-5.63-5.93-8.45-1.1-1.56-1.87-3.34-3.21-4.76-.27-.29-1.02-.95-.41-1.62.75-.8,1.56-1.53,2.38-2.27.03-.03.38.22.51.39,2.19,3.01,5.35,4.65,8.65,6.1.94.41,1.4,1.03,1.48,2.12.17,2.4.7,4.71,2.64,6.41.51.45.74.99.66,1.67Z"/><path class="cls-1" d="m91.05,98.89c1.85-1.46,3.59-2.92,6.03-3.59,2.59-.71,4.78-2.45,6.65-4.45.78-.84,1.5-1.35,2.83-.88,1.93.69,2.57-.03,2.05-2.08-.1-.39-.33-.86.01-1.01.36-.17.56.3.77.66.34.6.8,1.43,1.56,1.23,2.9-.77,3.99,2.07,6.06,2.91.31.13.48.52.17.75-.6.45-.76,1.33-1.93,1.23-2.04-.17-3.88-.92-5.73-1.62-1.1-.41-1.85-.33-2.33.59-.55,1.04-.46,2.2.63,2.9,1.09.69,2.3,1.2,3.46,1.78.69.34.99.73.23,1.33-.18.14-.33.34-.5.5-.68.64-1.28,1.6-2.08,1.82-.83.24-1.22-1.06-1.95-1.48-1.5-.85-2.98-1.72-4.06-3.12-.65-.84-1.61-.38-2.43-.47-1.08-.11-1.24.61-1.67,1.47-.78,1.55-1.99,2.9-3.09,4.28-.53.66-.45-.13-.64-.34-1-1.08-1.93-2.31-3.67-2.08-.32.1-.44-.01-.37-.34Z"/><path class="cls-1" d="m92.72,114.82c-1.66-.82-3.32-.44-4.94-.54-.13,0-.38-.08-.38-.11,0-.3.27-.27.48-.36.71-.29,1.4-.61,2.09-.94,1.02-.48,1.52-1.23,1.43-2.41-.11-1.42-1.46-.78-2.1-1.32-.23-.2-.76-.03-1.15-.06-.23-.02-.45-.29-.16-.36,1.45-.33,2.63-1.24,3.97-1.78.33-.13.28.2.39.36,1.13,1.57,2.39,1.49,3.96.54,1.55-.95,2.67-.3,3.24,1.61.06.2.29.34.09.58-1.89,2.24-4.56,3.33-6.91,4.8Z"/><path class="cls-1" d="m75.02,112.89c.9-.12,1.54.06,2.09.94.45.71.54,1.12-.23,1.36-1.71.54-.89,1.58-.38,2.3.99,1.4,2.36,2.22,4.2,2,.33-.04.95-.17.96.19.01.45-.64.2-.98.38-.54.28-1.14.44-1.69.7-.31.15-.92.15-.78.68.69,2.63-1.88,1.29-2.64,2.18-.22.26-.67,0-.66-.34.07-2.28-1.76-2.64-3.29-3.3-.26-.11-.55-.15-.83-.23.2-.23.35-.59.59-.68,1.1-.4,1.58-1.5,2.48-2.1,1.33-.88,1.19-1.99.38-2.97-1.33-1.61.18-1,.78-1.11Z"/><path class="cls-1" d="m134.92,90.05c-2.36-1.18-3.59.84-4.9,1.99-1.45,1.27-3.13,2.29-4.39,3.79-.25.29-.56.66-.98.4-.37-.23-.21-.7-.24-1.07-.1-1.33.67-2.53.52-3.88-.07-.67.6-.63,1.03-.57,2.5.35,4.65-.41,6.69-1.83,1.08-.75,1.87.19,2.64.83-.12.11-.25.23-.37.34Z"/><path class="cls-1" d="m94.47,91.2c-1.67-.21-3.13.04-4.25,1.36-.15.18-.34.32-.53.45-.79.53-1.57.14-2.32-.1-.41-.13-.22-.65,0-.75.85-.42.55-2.19,2.03-1.78,2.3.62,4.54.5,6.72-.42.44-.19.81-.3,1.23-.02-.23.3-.5.59-.68.91-.62,1.1-1.53.06-2.2.35Z"/><path class="cls-1" d="m119.23,100.19c-.1,1.48-.24,2.81-2.25,3.01-.66.07-1.36.17-2.04.25-.28.04-.55.47-.8.16-.22-.27.05-.55.26-.78,1.29-1.34,3-2.21,4.18-3.69.15-.19.49-.29.55-.12.12.36.08.77.1,1.17Z"/><path class="cls-1" d="m144.27,111.83c-.59.52-1.25,1.18-1.99,1.72-.42.3-.34-.28-.5-.46-.77-.87-.1-2.1-.79-3.02-.17-.23.28-.62.55-.42.79.6,1.64,1.07,2.52,1.52.09.04.09.26.21.67Z"/><path class="cls-1" d="m87.77,103.29c-.15-.13-.36-.23-.37-.33-.04-.71.26-1.3.8-1.75.46-.38.71-1.08,1.47-1.03.06,0,.12.09.17.15.23.33.06.6-.18.81-.75.61-.8,1.84-1.88,2.15Z"/><path class="cls-1" d="m126.63,110.81c-.62.78-1.68,1-2.26,1.83-.16.22-.52.36-.77.02-.23-.32-.04-.56.17-.79.68-.74,1.48-1.26,2.49-1.39.32-.1.44.01.37.34Z"/><path class="cls-1" d="m74.17,101.55c-.23,0-.46.02-.69,0-.35-.03-.82.12-.9-.41-.03-.18.14-.4.25-.59.3-.48.61-.15.92,0,.33.17.66.34,1,.49.25.11.78-.1.75.26-.04.47-.57.15-.88.23-.14.04-.3,0-.46,0Z"/><path class="cls-1" d="m81.43,106.78c.78-.18,1.25.4,1.83.72-.97.55-.7,1.64-1.06,2.45-.02.04-.29.03-.41-.04-.36-.2.02-.35.06-.52.21-.93.18-1.83-.37-2.65l-.04.05Z"/><path class="cls-1" d="m61.83,95.85c.34.38-.02.45-.16.45-.55,0-.42-.52-.59-.82-.16-.28.04-.49.2-.46.46.08.33.63.54.83Z"/><path class="cls-1" d="m168.27,96.38c.15.08.28.14.41.21-.25.28-.41.68-.87.67-.13,0-.26-.12-.4-.19.24-.29.43-.65.85-.7Z"/><path class="cls-1" d="m114,84.09c.62-.23,1.12-.08,1.48.49-.62.23-1.12.08-1.48-.49Z"/><path class="cls-1" d="m118.52,104.82c.1.34.21.54.21.74,0,.2-.14.39-.22.58-.07-.2-.2-.39-.2-.59,0-.2.11-.39.22-.73Z"/><path class="cls-1" d="m107.87,86.03c.2-.05.36,0,.38.19.03.23,0,.47-.34.31-.14-.06-.25-.17-.38-.26.12-.09.23-.17.33-.25Z"/><path class="cls-1" d="m91.42,99.23c-.17.42-.53.59-.82.27-.17-.19.26-.42.44-.61.12.11.25.22.37.34Z"/><path class="cls-1" d="m126.26,110.47c.17-.42.53-.59.82-.27.17.19-.26.42-.44.61-.12-.11-.25-.22-.37-.34Z"/><path class="cls-1" d="m143.72,78.86c.17-.41.51-.6.8-.27.18.2-.25.42-.43.61-.12-.11-.25-.22-.37-.34Z"/></g><circle class="cls-2" cx="115.2" cy="115.2" r="110.2"/></svg>